<svg version="1.2" xmlns="http://www.w3.org/2000/svg" viewBox="0 0 408 407" width="408" height="407">
	<title>contactIcon-svg</title>
	<style>
		.s0 { fill: #f9a61c } 
		.s1 { fill: #21409b } 
		.s2 { opacity: .1;fill: #000000 } 
		.s3 { opacity: .1;fill: #ffffff } 
		.s4 { fill: none } 
	</style>
	<path id="Layer" class="s0" d="m404.4 99.9l-46.9 46.9-85.1 85.1-149.8 149.8-0.4-0.4-23.1-23.1-47-47-24.2-24.2 141.3-141.2 33.4-33.5 59.4-59.4 0.8-0.8 15.1-15.1 10.8-10.8 21.1-21z"/>
	<path id="Layer" class="s1" d="m122.6 381.7l-39.1 7.8-78.3 15.7 15.1-78.8 7.6-39.4z"/>
	<path id="Layer" class="s2" d="m404.4 99.9l-46.9 46.9-85.1 85.1-149.8 149.8-0.4-0.4-23.1-23.1 33.6-33.5 201.3-201.4 47-46.9z"/>
	<path id="Layer" class="s1" d="m404.4 99.9l-46.9 46.9-23.5-23.5-47-46.9-24.2-24.3 15.1-15.1 10.8-10.8 21.1-21z"/>
	<path id="Layer" class="s2" d="m334 123.3l46.9-46.9 23.5 23.5-46.9 46.9z"/>
	<path id="Layer" class="s3" d="m334 29.4l-47 47-24.2-24.3 15.1-15.1 10.8-10.8 21.1-21z"/>
	<path id="Layer" class="s3" d="m287 76.4l-2.4 2.4-10.8 10.8-15.9 15.9-92.9 92.9-24.3 24.2-88.6 88.6-24.2-24.2 141.3-141.2 33.4-33.5 59.4-59.4 0.8-0.8z"/>
	<path id="Layer" class="s2" d="m122.2 381.3l-39.1 7.9-19.6 3.9 35.3-35.3z"/>
	<path id="Layer" class="s3" d="m52.1 311.2l-35.7 35.8 3.9-20.6 7.6-39.4z"/>
	<path id="Layer" class="s4" d="m404.4 99.9l-46.9 46.9-85.1 85.1-26.7 26.7-59.3 59.3-33.5 33.5-24.3 24.3-6 6-39.1 7.8-78.3 15.7 11.2-58.2 3.9-20.6 7.6-39.4 141.3-141.2 33.4-33.5 59.4-59.4 0.8-0.8 15.1-15.1 10.8-10.8 21.1-21z"/>
	<path id="Layer" class="s4" d="m27.9 287l94.7 94.7"/>
	<path id="Layer" class="s4" d="m262.8 52.2l94.7 94.6"/>
</svg>