<?xml version="1.0" encoding="UTF-8"?>
<!DOCTYPE svg PUBLIC "-//W3C//DTD SVG 1.1//EN" "http://www.w3.org/Graphics/SVG/1.1/DTD/svg11.dtd">
<svg xmlns="http://www.w3.org/2000/svg" version="1.1" width="512px" height="512px" style="shape-rendering:geometricPrecision; text-rendering:geometricPrecision; image-rendering:optimizeQuality; fill-rule:evenodd; clip-rule:evenodd" xmlns:xlink="http://www.w3.org/1999/xlink">
<g><path style="opacity:0.998" fill="#41416b" d="M 252.5,-0.5 C 262.167,-0.5 271.833,-0.5 281.5,-0.5C 305.71,3.5228 326.21,14.5228 343,32.5C 344.421,34.4048 345.588,36.4048 346.5,38.5C 349.03,45.0637 352.697,50.897 357.5,56C 379.484,65.16 389.817,81.66 388.5,105.5C 388.244,114.846 387.744,124.18 387,133.5C 384.735,143.624 382.069,153.624 379,163.5C 378.077,167.79 377.577,172.123 377.5,176.5C 373.3,176.19 369.3,176.857 365.5,178.5C 362.772,169.043 358.939,160.043 354,151.5C 353.667,141.167 353.333,130.833 353,120.5C 351.04,108.719 345.206,99.5523 335.5,93C 332.833,92.3333 330.167,92.3333 327.5,93C 289.081,115.051 248.081,122.218 204.5,114.5C 204.5,114.167 204.5,113.833 204.5,113.5C 214.398,100.916 218.231,86.5824 216,70.5C 213.327,63.1568 210.66,55.8235 208,48.5C 207.333,44.8333 207.333,41.1667 208,37.5C 212.01,24.1554 219.843,13.6554 231.5,6C 231.272,5.60123 230.938,5.43456 230.5,5.5C 237.675,2.87318 245.008,0.873181 252.5,-0.5 Z"/></g>
<g><path style="opacity:0.999" fill="#35355e" d="M 230.5,5.5 C 230.938,5.43456 231.272,5.60123 231.5,6C 219.843,13.6554 212.01,24.1554 208,37.5C 207.333,41.1667 207.333,44.8333 208,48.5C 210.66,55.8235 213.327,63.1568 216,70.5C 218.231,86.5824 214.398,100.916 204.5,113.5C 192.531,111.344 181.031,107.677 170,102.5C 164.437,104.465 161.77,108.465 162,114.5C 161.898,127.214 161.231,139.88 160,152.5C 158.106,157.392 155.772,162.059 153,166.5C 151.523,170.43 150.356,174.43 149.5,178.5C 146.306,177.242 142.973,176.576 139.5,176.5C 139.235,172.147 138.735,167.813 138,163.5C 134.037,150.314 130.704,136.981 128,123.5C 118.43,111.663 111.597,98.3295 107.5,83.5C 107.887,82.2801 108.72,81.6135 110,81.5C 112.724,82.6868 115.557,83.3535 118.5,83.5C 117.618,77.0194 116.618,70.6861 115.5,64.5C 115.187,48.8996 118.02,33.8996 124,19.5C 126.072,14.8567 129.572,13.3567 134.5,15C 143.898,26.355 155.898,31.0217 170.5,29C 186.729,22.8854 202.729,16.2187 218.5,9C 222.43,7.5226 226.43,6.35593 230.5,5.5 Z"/></g>
<g><path style="opacity:0.995" fill="#fe4155" d="M 346.5,38.5 C 410.365,64.8649 455.865,109.865 483,173.5C 511.426,249.515 505.76,322.848 466,393.5C 459.39,403.936 452.223,413.936 444.5,423.5C 442.436,423.313 440.436,422.813 438.5,422C 413.804,406.986 387.804,394.653 360.5,385C 357.854,384.503 355.187,384.336 352.5,384.5C 348.714,383.778 345.38,382.445 342.5,380.5C 352.887,359.293 359.72,336.96 363,313.5C 364.994,291.879 365.828,270.212 365.5,248.5C 369.883,247.554 373.383,245.221 376,241.5C 378.855,231.717 382.022,222.051 385.5,212.5C 388.914,204.848 390.414,196.848 390,188.5C 388.579,181.578 384.413,177.578 377.5,176.5C 377.577,172.123 378.077,167.79 379,163.5C 382.069,153.624 384.735,143.624 387,133.5C 387.744,124.18 388.244,114.846 388.5,105.5C 389.817,81.66 379.484,65.16 357.5,56C 352.697,50.897 349.03,45.0637 346.5,38.5 Z"/></g>
<g><path style="opacity:0.996" fill="#fe4155" d="M 115.5,64.5 C 116.618,70.6861 117.618,77.0194 118.5,83.5C 115.557,83.3535 112.724,82.6868 110,81.5C 108.72,81.6135 107.887,82.2801 107.5,83.5C 111.597,98.3295 118.43,111.663 128,123.5C 130.704,136.981 134.037,150.314 138,163.5C 138.735,167.813 139.235,172.147 139.5,176.5C 132.406,176.41 127.573,179.744 125,186.5C 124.333,191.167 124.333,195.833 125,200.5C 126.229,204.621 127.729,208.621 129.5,212.5C 132.898,221.654 135.732,230.988 138,240.5C 140.745,244.767 144.578,247.101 149.5,247.5C 146.735,285.006 150.902,321.673 162,357.5C 165.237,365.639 168.737,373.639 172.5,381.5C 169.01,382.257 165.677,383.257 162.5,384.5C 154.072,384.363 146.072,386.196 138.5,390C 116.783,399.358 95.783,410.025 75.5,422C 72.8832,422.822 70.2165,423.322 67.5,423.5C 34.7606,384.985 15.9272,340.318 11,289.5C 5.46888,195.254 40.3022,120.254 115.5,64.5 Z"/></g>
<g><path style="opacity:1" fill="#f8b98e" d="M 365.5,178.5 C 366.959,190.286 366.292,201.952 363.5,213.5C 362.248,218.491 362.248,223.491 363.5,228.5C 362.732,227.737 362.232,226.737 362,225.5C 358.408,241.629 351.741,256.295 342,269.5C 338.278,273.725 334.112,277.392 329.5,280.5C 319.264,264.382 304.598,256.048 285.5,255.5C 287.115,252.254 286.782,249.254 284.5,246.5C 279.711,244.368 274.711,243.535 269.5,244C 265.486,250.669 260.153,252.002 253.5,248C 252.833,246 251.5,244.667 249.5,244C 245.496,243.856 241.496,244.189 237.5,245C 233.585,247.645 232.585,251.145 234.5,255.5C 230.629,255.185 226.962,255.518 223.5,256.5C 214.912,258.295 207.245,261.961 200.5,267.5C 199.106,247.142 197.44,226.809 195.5,206.5C 197.701,207.566 200.035,208.233 202.5,208.5C 207.74,209.449 213.073,209.782 218.5,209.5C 225.549,208.319 232.549,206.819 239.5,205C 234.281,201.231 228.947,197.731 223.5,194.5C 215.888,190.051 207.888,189.384 199.5,192.5C 197.315,192.704 195.315,193.37 193.5,194.5C 193.202,187.689 193.869,181.022 195.5,174.5C 198.167,174.5 200.833,174.5 203.5,174.5C 216.103,176.939 228.77,179.605 241.5,182.5C 241.689,177.564 240.023,173.398 236.5,170C 226.904,167.595 217.237,165.761 207.5,164.5C 204.545,163.841 201.545,163.508 198.5,163.5C 200.683,159.789 202.183,155.789 203,151.5C 203.248,139.142 203.748,126.808 204.5,114.5C 248.081,122.218 289.081,115.051 327.5,93C 330.167,92.3333 332.833,92.3333 335.5,93C 345.206,99.5523 351.04,108.719 353,120.5C 353.333,130.833 353.667,141.167 354,151.5C 358.939,160.043 362.772,169.043 365.5,178.5 Z"/></g>
<g><path style="opacity:1" fill="#fbac6d" d="M 204.5,113.5 C 204.5,113.833 204.5,114.167 204.5,114.5C 203.748,126.808 203.248,139.142 203,151.5C 202.183,155.789 200.683,159.789 198.5,163.5C 183.958,162.645 176.125,169.311 175,183.5C 180.719,177.889 187.552,174.889 195.5,174.5C 193.869,181.022 193.202,187.689 193.5,194.5C 190.202,196.505 187.202,199.005 184.5,202C 188.041,203.792 191.708,205.292 195.5,206.5C 197.44,226.809 199.106,247.142 200.5,267.5C 196.499,272.339 192.666,277.339 189,282.5C 174.585,273.408 164.585,260.741 159,244.5C 156.518,237.558 154.352,230.558 152.5,223.5C 152.052,219.476 151.386,215.476 150.5,211.5C 143.703,217.695 136.703,218.029 129.5,212.5C 127.729,208.621 126.229,204.621 125,200.5C 124.333,195.833 124.333,191.167 125,186.5C 127.573,179.744 132.406,176.41 139.5,176.5C 142.973,176.576 146.306,177.242 149.5,178.5C 150.356,174.43 151.523,170.43 153,166.5C 155.772,162.059 158.106,157.392 160,152.5C 161.231,139.88 161.898,127.214 162,114.5C 161.77,108.465 164.437,104.465 170,102.5C 181.031,107.677 192.531,111.344 204.5,113.5 Z"/></g>
<g><path style="opacity:1" fill="#3c395f" d="M 198.5,163.5 C 201.545,163.508 204.545,163.841 207.5,164.5C 205.471,167.313 205.137,170.313 206.5,173.5C 205.675,174.386 204.675,174.719 203.5,174.5C 200.833,174.5 198.167,174.5 195.5,174.5C 187.552,174.889 180.719,177.889 175,183.5C 176.125,169.311 183.958,162.645 198.5,163.5 Z"/></g>
<g><path style="opacity:1" fill="#46446c" d="M 303.5,176.5 C 300.857,173.766 299.857,170.433 300.5,166.5C 299.5,166.5 298.5,166.5 297.5,166.5C 307.621,164.661 317.954,164.161 328.5,165C 336.716,167.727 341.716,173.394 343.5,182C 343.167,182.5 342.833,183 342.5,183.5C 338.633,179.398 333.967,176.564 328.5,175C 320.05,174.286 311.717,174.786 303.5,176.5 Z"/></g>
<g><path style="opacity:1" fill="#45436b" d="M 207.5,164.5 C 217.237,165.761 226.904,167.595 236.5,170C 240.023,173.398 241.689,177.564 241.5,182.5C 228.77,179.605 216.103,176.939 203.5,174.5C 204.675,174.719 205.675,174.386 206.5,173.5C 205.137,170.313 205.471,167.313 207.5,164.5 Z"/></g>
<g><path style="opacity:1" fill="#3a385f" d="M 297.5,166.5 C 298.5,166.5 299.5,166.5 300.5,166.5C 299.857,170.433 300.857,173.766 303.5,176.5C 294.184,178.495 284.851,180.495 275.5,182.5C 275.707,177.703 277.374,173.537 280.5,170C 286,168.042 291.667,166.875 297.5,166.5 Z"/></g>
<g><path style="opacity:1" fill="#fbac6c" d="M 377.5,176.5 C 384.413,177.578 388.579,181.578 390,188.5C 390.414,196.848 388.914,204.848 385.5,212.5C 378.629,217.717 371.796,217.717 365,212.5C 364.617,213.056 364.117,213.389 363.5,213.5C 366.292,201.952 366.959,190.286 365.5,178.5C 369.3,176.857 373.3,176.19 377.5,176.5 Z"/></g>
<g><path style="opacity:1" fill="#42416a" d="M 223.5,194.5 C 224.625,200.532 222.959,205.532 218.5,209.5C 213.073,209.782 207.74,209.449 202.5,208.5C 198.72,203.71 197.72,198.376 199.5,192.5C 207.888,189.384 215.888,190.051 223.5,194.5 Z"/></g>
<g><path style="opacity:1" fill="#414069" d="M 316.5,191.5 C 319.525,197.628 318.859,203.295 314.5,208.5C 309.228,209.4 303.895,209.733 298.5,209.5C 294.092,204.942 292.759,199.608 294.5,193.5C 301.547,190.342 308.88,189.675 316.5,191.5 Z"/></g>
<g><path style="opacity:1" fill="#fdf0e7" d="M 199.5,192.5 C 197.72,198.376 198.72,203.71 202.5,208.5C 200.035,208.233 197.701,207.566 195.5,206.5C 191.708,205.292 188.041,203.792 184.5,202C 187.202,199.005 190.202,196.505 193.5,194.5C 195.315,193.37 197.315,192.704 199.5,192.5 Z"/></g>
<g><path style="opacity:1" fill="#faeee7" d="M 316.5,191.5 C 323.444,193.61 328.778,197.61 332.5,203.5C 326.349,204.572 320.349,206.239 314.5,208.5C 318.859,203.295 319.525,197.628 316.5,191.5 Z"/></g>
<g><path style="opacity:1" fill="#f9eee7" d="M 223.5,194.5 C 228.947,197.731 234.281,201.231 239.5,205C 232.549,206.819 225.549,208.319 218.5,209.5C 222.959,205.532 224.625,200.532 223.5,194.5 Z"/></g>
<g><path style="opacity:1" fill="#faeee6" d="M 294.5,193.5 C 292.759,199.608 294.092,204.942 298.5,209.5C 291.429,208.589 284.429,207.255 277.5,205.5C 283.161,201.507 288.828,197.507 294.5,193.5 Z"/></g>
<g><path style="opacity:1" fill="#fc985b" d="M 152.5,223.5 C 151.097,231.319 150.097,239.319 149.5,247.5C 144.578,247.101 140.745,244.767 138,240.5C 135.732,230.988 132.898,221.654 129.5,212.5C 136.703,218.029 143.703,217.695 150.5,211.5C 151.386,215.476 152.052,219.476 152.5,223.5 Z"/></g>
<g><path style="opacity:1" fill="#fc985b" d="M 385.5,212.5 C 382.022,222.051 378.855,231.717 376,241.5C 373.383,245.221 369.883,247.554 365.5,248.5C 364.187,242.041 363.521,235.374 363.5,228.5C 362.248,223.491 362.248,218.491 363.5,213.5C 364.117,213.389 364.617,213.056 365,212.5C 371.796,217.717 378.629,217.717 385.5,212.5 Z"/></g>
<g><path style="opacity:1" fill="#35355e" d="M 152.5,223.5 C 154.352,230.558 156.518,237.558 159,244.5C 164.585,260.741 174.585,273.408 189,282.5C 192.666,277.339 196.499,272.339 200.5,267.5C 207.245,261.961 214.912,258.295 223.5,256.5C 224.376,256.369 225.043,256.702 225.5,257.5C 219.598,271.733 222.932,283.233 235.5,292C 232.635,292.183 229.969,292.683 227.5,293.5C 222.351,294.074 218.018,296.241 214.5,300C 219.524,320.172 232.524,330.006 253.5,329.5C 254.952,330.302 256.618,330.802 258.5,331C 246.848,341.109 243.015,353.609 247,368.5C 250.94,375.436 255.273,382.103 260,388.5C 268.735,404.806 268.235,420.806 258.5,436.5C 247.255,436.688 236.589,434.355 226.5,429.5C 209.903,422.112 195.737,411.446 184,397.5C 179.916,392.265 176.083,386.931 172.5,381.5C 168.737,373.639 165.237,365.639 162,357.5C 150.902,321.673 146.735,285.006 149.5,247.5C 150.097,239.319 151.097,231.319 152.5,223.5 Z"/></g>
<g><path style="opacity:1" fill="#41416b" d="M 363.5,228.5 C 363.521,235.374 364.187,242.041 365.5,248.5C 365.828,270.212 364.994,291.879 363,313.5C 359.72,336.96 352.887,359.293 342.5,380.5C 333.541,395.634 321.874,408.467 307.5,419C 292.626,428.902 276.293,434.736 258.5,436.5C 268.235,420.806 268.735,404.806 260,388.5C 255.273,382.103 250.94,375.436 247,368.5C 243.015,353.609 246.848,341.109 258.5,331C 256.618,330.802 254.952,330.302 253.5,329.5C 269.074,331.944 282.241,327.611 293,316.5C 295.639,309.888 298.806,303.554 302.5,297.5C 299.109,294.645 295.109,293.312 290.5,293.5C 279.77,293.554 269.437,291.554 259.5,287.5C 249.846,291.071 239.846,293.071 229.5,293.5C 228.833,293.5 228.167,293.5 227.5,293.5C 229.969,292.683 232.635,292.183 235.5,292C 222.932,283.233 219.598,271.733 225.5,257.5C 225.043,256.702 224.376,256.369 223.5,256.5C 226.962,255.518 230.629,255.185 234.5,255.5C 241.081,255.457 247.081,257.29 252.5,261C 260.445,262.583 267.778,261.25 274.5,257C 278.252,256.76 281.919,256.26 285.5,255.5C 304.598,256.048 319.264,264.382 329.5,280.5C 334.112,277.392 338.278,273.725 342,269.5C 351.741,256.295 358.408,241.629 362,225.5C 362.232,226.737 362.732,227.737 363.5,228.5 Z"/></g>
<g><path style="opacity:1" fill="#faac6d" d="M 285.5,255.5 C 281.919,256.26 278.252,256.76 274.5,257C 267.778,261.25 260.445,262.583 252.5,261C 247.081,257.29 241.081,255.457 234.5,255.5C 232.585,251.145 233.585,247.645 237.5,245C 241.496,244.189 245.496,243.856 249.5,244C 251.5,244.667 252.833,246 253.5,248C 260.153,252.002 265.486,250.669 269.5,244C 274.711,243.535 279.711,244.368 284.5,246.5C 286.782,249.254 287.115,252.254 285.5,255.5 Z"/></g>
<g><path style="opacity:1" fill="#f9ab6d" d="M 290.5,293.5 C 289.781,295.888 288.115,297.388 285.5,298C 281.702,299.877 277.702,301.044 273.5,301.5C 268.691,300.423 263.858,299.423 259,298.5C 255.731,298.923 252.564,299.756 249.5,301C 242.688,301.443 236.354,299.777 230.5,296C 229.748,295.329 229.414,294.496 229.5,293.5C 239.846,293.071 249.846,291.071 259.5,287.5C 269.437,291.554 279.77,293.554 290.5,293.5 Z"/></g>
<g><path style="opacity:1" fill="#f7b98e" d="M 227.5,293.5 C 228.167,293.5 228.833,293.5 229.5,293.5C 229.414,294.496 229.748,295.329 230.5,296C 236.354,299.777 242.688,301.443 249.5,301C 252.564,299.756 255.731,298.923 259,298.5C 263.858,299.423 268.691,300.423 273.5,301.5C 277.702,301.044 281.702,299.877 285.5,298C 288.115,297.388 289.781,295.888 290.5,293.5C 295.109,293.312 299.109,294.645 302.5,297.5C 298.806,303.554 295.639,309.888 293,316.5C 282.241,327.611 269.074,331.944 253.5,329.5C 232.524,330.006 219.524,320.172 214.5,300C 218.018,296.241 222.351,294.074 227.5,293.5 Z"/></g>
<g><path style="opacity:1" fill="#fbad6e" d="M 253.5,311.5 C 257.846,311.334 262.179,311.501 266.5,312C 269.835,314.679 270.335,317.845 268,321.5C 262.94,323.958 257.773,324.125 252.5,322C 249.64,318.151 249.973,314.651 253.5,311.5 Z"/></g>
<g><path style="opacity:1" fill="#fb985c" d="M 172.5,381.5 C 176.083,386.931 179.916,392.265 184,397.5C 195.737,411.446 209.903,422.112 226.5,429.5C 224.653,436.181 220.653,441.181 214.5,444.5C 194.691,429.222 178.858,410.555 167,388.5C 165.603,386.93 164.103,385.596 162.5,384.5C 165.677,383.257 169.01,382.257 172.5,381.5 Z"/></g>
<g><path style="opacity:1" fill="#faac6e" d="M 342.5,380.5 C 345.38,382.445 348.714,383.778 352.5,384.5C 345.631,392.534 339.464,401.201 334,410.5C 320.491,430.347 302.991,445.514 281.5,456C 264.314,463.629 247.314,463.296 230.5,455C 224.974,452.074 219.641,448.907 214.5,445.5C 214.5,445.167 214.5,444.833 214.5,444.5C 220.653,441.181 224.653,436.181 226.5,429.5C 236.589,434.355 247.255,436.688 258.5,436.5C 276.293,434.736 292.626,428.902 307.5,419C 321.874,408.467 333.541,395.634 342.5,380.5 Z"/></g>
<g><path style="opacity:1" fill="#fce5d5" d="M 162.5,384.5 C 164.103,385.596 165.603,386.93 167,388.5C 178.858,410.555 194.691,429.222 214.5,444.5C 214.5,444.833 214.5,445.167 214.5,445.5C 192.533,450.432 171.867,458.599 152.5,470C 149.167,472.667 145.833,475.333 142.5,478C 140.859,479.129 139.859,480.629 139.5,482.5C 111.307,467.976 87.3074,448.31 67.5,423.5C 70.2165,423.322 72.8832,422.822 75.5,422C 95.783,410.025 116.783,399.358 138.5,390C 146.072,386.196 154.072,384.363 162.5,384.5 Z"/></g>
<g><path style="opacity:0.995" fill="#fff4ed" d="M 352.5,384.5 C 355.187,384.336 357.854,384.503 360.5,385C 387.804,394.653 413.804,406.986 438.5,422C 440.436,422.813 442.436,423.313 444.5,423.5C 400.523,474.659 344.857,503.992 277.5,511.5C 262.833,511.5 248.167,511.5 233.5,511.5C 200.2,508.29 168.867,498.623 139.5,482.5C 139.859,480.629 140.859,479.129 142.5,478C 145.833,475.333 149.167,472.667 152.5,470C 171.867,458.599 192.533,450.432 214.5,445.5C 219.641,448.907 224.974,452.074 230.5,455C 247.314,463.296 264.314,463.629 281.5,456C 302.991,445.514 320.491,430.347 334,410.5C 339.464,401.201 345.631,392.534 352.5,384.5 Z"/></g>
</svg>
