<?xml version="1.0" encoding="UTF-8"?>
<!DOCTYPE svg PUBLIC "-//W3C//DTD SVG 1.1//EN" "http://www.w3.org/Graphics/SVG/1.1/DTD/svg11.dtd">
<svg xmlns="http://www.w3.org/2000/svg" version="1.1" width="512px" height="512px" style="shape-rendering:geometricPrecision; text-rendering:geometricPrecision; image-rendering:optimizeQuality; fill-rule:evenodd; clip-rule:evenodd" xmlns:xlink="http://www.w3.org/1999/xlink">
<g><path style="opacity:0.992" fill="#2a2e6d" d="M 221.5,-0.5 C 229.5,-0.5 237.5,-0.5 245.5,-0.5C 249.355,0.435628 252.689,2.43563 255.5,5.5C 258.311,2.43563 261.645,0.435628 265.5,-0.5C 273.5,-0.5 281.5,-0.5 289.5,-0.5C 312.963,2.59996 334.296,11.1 353.5,25C 364.373,33.917 371.873,45.0837 376,58.5C 376.713,68.9362 378.047,79.2695 380,89.5C 383.611,95.444 387.611,101.111 392,106.5C 397.729,117.946 399.062,129.946 396,142.5C 393.491,150.55 390.324,158.216 386.5,165.5C 386.342,158.824 384.509,152.49 381,146.5C 375.24,140.71 368.407,139.044 360.5,141.5C 359.7,149.501 359.034,157.501 358.5,165.5C 356.5,165.5 354.5,165.5 352.5,165.5C 352.818,160.968 352.485,156.634 351.5,152.5C 349.085,139.317 342.418,128.983 331.5,121.5C 331.199,109.02 329.699,96.6865 327,84.5C 321.129,70.2968 310.962,60.4635 296.5,55C 273.533,47.9237 250.199,46.5904 226.5,51C 212.098,54.4085 199.931,61.5751 190,72.5C 187.473,76.2211 185.473,80.2211 184,84.5C 181.342,96.3584 179.842,108.358 179.5,120.5C 170.372,126.467 163.539,134.467 159,144.5C 158.047,147.432 157.547,150.432 157.5,153.5C 156.517,157.298 156.183,161.298 156.5,165.5C 154.5,165.5 152.5,165.5 150.5,165.5C 150.702,163.05 150.369,160.717 149.5,158.5C 149.5,152.5 149.5,146.5 149.5,140.5C 138.614,138.358 131.114,142.358 127,152.5C 126.034,156.94 125.201,161.273 124.5,165.5C 115.554,151.137 112.054,135.47 114,118.5C 114.942,115.007 116.275,111.674 118,108.5C 122.333,102.167 126.667,95.8333 131,89.5C 129.654,57.0152 142.821,32.5152 170.5,16C 186.738,7.75291 203.738,2.25291 221.5,-0.5 Z"/></g>
<g><path style="opacity:1" fill="#f8c4b7" d="M 331.5,121.5 C 308.859,110.35 289.026,114.017 272,132.5C 268.489,138.022 265.655,143.856 263.5,150C 260.527,150.105 257.527,149.938 254.5,149.5C 251.622,149.386 248.956,150.052 246.5,151.5C 237.8,124.997 219.466,113.164 191.5,116C 187.375,117.232 183.375,118.732 179.5,120.5C 179.842,108.358 181.342,96.3584 184,84.5C 185.473,80.2211 187.473,76.2211 190,72.5C 199.931,61.5751 212.098,54.4085 226.5,51C 250.199,46.5904 273.533,47.9237 296.5,55C 310.962,60.4635 321.129,70.2968 327,84.5C 329.699,96.6865 331.199,109.02 331.5,121.5 Z"/></g>
<g><path style="opacity:1" fill="#fdfcfc" d="M 331.5,121.5 C 342.418,128.983 349.085,139.317 351.5,152.5C 351.5,157.167 351.5,161.833 351.5,166.5C 353.833,166.5 356.167,166.5 358.5,166.5C 359.167,166.5 359.833,166.5 360.5,166.5C 363.139,167.706 363.972,169.706 363,172.5C 361.556,174.155 359.722,174.822 357.5,174.5C 354.753,174.187 352.086,174.52 349.5,175.5C 347.82,178.86 346.153,182.193 344.5,185.5C 325.845,206.663 304.512,209.83 280.5,195C 270.04,186.247 264.207,175.081 263,161.5C 256.96,155.897 251.293,156.231 246,162.5C 243.18,182.98 232.013,196.48 212.5,203C 192.912,206.751 176.912,200.917 164.5,185.5C 162.716,182.098 161.05,178.598 159.5,175C 157.19,174.503 154.857,174.337 152.5,174.5C 151.167,174.5 149.833,174.5 148.5,174.5C 146.925,172.886 146.259,170.886 146.5,168.5C 147.287,166.896 148.62,166.229 150.5,166.5C 152.833,166.5 155.167,166.5 157.5,166.5C 157.5,162.167 157.5,157.833 157.5,153.5C 157.547,150.432 158.047,147.432 159,144.5C 163.539,134.467 170.372,126.467 179.5,120.5C 183.375,118.732 187.375,117.232 191.5,116C 219.466,113.164 237.8,124.997 246.5,151.5C 248.956,150.052 251.622,149.386 254.5,149.5C 257.527,149.938 260.527,150.105 263.5,150C 265.655,143.856 268.489,138.022 272,132.5C 289.026,114.017 308.859,110.35 331.5,121.5 Z"/></g>
<g><path style="opacity:1" fill="#f7c4b7" d="M 209.5,124.5 C 202.489,125.086 195.822,126.919 189.5,130C 186.657,133.619 186.99,136.952 190.5,140C 195.142,139.126 199.808,137.793 204.5,136C 211.167,135.667 217.833,135.333 224.5,135C 225.252,134.329 225.586,133.496 225.5,132.5C 237.61,143.947 240.776,157.613 235,173.5C 233.556,177.411 231.389,180.744 228.5,183.5C 225.527,180.517 221.86,178.85 217.5,178.5C 216.702,178.043 216.369,177.376 216.5,176.5C 222.472,167.833 222.972,158.833 218,149.5C 214.667,145.5 211.333,145.5 208,149.5C 202.933,159.395 203.767,168.729 210.5,177.5C 200.523,176.652 191.69,179.319 184,185.5C 182.991,187.025 182.491,188.692 182.5,190.5C 166.537,178.947 161.87,163.947 168.5,145.5C 168.897,146.525 169.563,146.692 170.5,146C 174.663,142.522 176.663,138.356 176.5,133.5C 185.929,124.577 196.929,121.577 209.5,124.5 Z"/></g>
<g><path style="opacity:1" fill="#f7c4b7" d="M 299.5,124.5 C 309.313,122.208 318.646,123.708 327.5,129C 329.763,130.617 331.763,132.45 333.5,134.5C 334.682,139.542 337.349,143.542 341.5,146.5C 347.235,164.915 342.235,179.582 326.5,190.5C 326.731,187.215 325.397,184.715 322.5,183C 315.019,179.717 307.352,177.55 299.5,176.5C 305.56,167.877 306.06,158.877 301,149.5C 297.667,145.5 294.333,145.5 291,149.5C 286.691,156.963 286.358,164.629 290,172.5C 290.996,174.66 292.496,176.327 294.5,177.5C 291.742,178.761 288.742,179.594 285.5,180C 283.416,180.697 281.749,181.864 280.5,183.5C 271.336,172.148 269.17,159.481 274,145.5C 276.257,140.423 279.424,136.09 283.5,132.5C 283.577,133.75 284.244,134.583 285.5,135C 294.781,134.679 303.781,136.012 312.5,139C 320.992,140.522 323.325,137.522 319.5,130C 313.083,127.229 306.417,125.396 299.5,124.5 Z"/></g>
<g><path style="opacity:1" fill="#333370" d="M 209.5,124.5 C 215.675,125.588 221.009,128.254 225.5,132.5C 225.586,133.496 225.252,134.329 224.5,135C 217.833,135.333 211.167,135.667 204.5,136C 199.808,137.793 195.142,139.126 190.5,140C 186.99,136.952 186.657,133.619 189.5,130C 195.822,126.919 202.489,125.086 209.5,124.5 Z"/></g>
<g><path style="opacity:1" fill="#323370" d="M 299.5,124.5 C 306.417,125.396 313.083,127.229 319.5,130C 323.325,137.522 320.992,140.522 312.5,139C 303.781,136.012 294.781,134.679 285.5,135C 284.244,134.583 283.577,133.75 283.5,132.5C 288.003,128.249 293.336,125.582 299.5,124.5 Z"/></g>
<g><path style="opacity:1" fill="#3a3a75" d="M 176.5,133.5 C 176.663,138.356 174.663,142.522 170.5,146C 169.563,146.692 168.897,146.525 168.5,145.5C 170.178,140.803 172.844,136.803 176.5,133.5 Z"/></g>
<g><path style="opacity:1" fill="#434179" d="M 333.5,134.5 C 337.156,137.803 339.822,141.803 341.5,146.5C 337.349,143.542 334.682,139.542 333.5,134.5 Z"/></g>
<g><path style="opacity:0.994" fill="#f2a796" d="M 149.5,158.5 C 147.734,156.229 145.734,154.063 143.5,152C 141.633,151.289 140.133,151.789 139,153.5C 140.944,157.33 142.777,161.33 144.5,165.5C 141.813,165.336 139.146,165.503 136.5,166C 134.473,167.396 134.14,169.062 135.5,171C 138.817,171.498 142.15,171.665 145.5,171.5C 145.263,170.209 145.596,169.209 146.5,168.5C 146.259,170.886 146.925,172.886 148.5,174.5C 147.778,174.918 147.278,175.584 147,176.5C 146.189,180.496 145.856,184.496 146,188.5C 146.837,190.007 148.004,190.507 149.5,190C 151.377,187.874 152.377,185.374 152.5,182.5C 154.07,187.308 155.403,192.308 156.5,197.5C 153.401,202.871 148.735,204.704 142.5,203C 137.311,200.309 133.311,196.476 130.5,191.5C 130.715,189.821 130.048,188.821 128.5,188.5C 125.624,181.117 124.291,173.451 124.5,165.5C 125.201,161.273 126.034,156.94 127,152.5C 131.114,142.358 138.614,138.358 149.5,140.5C 149.5,146.5 149.5,152.5 149.5,158.5 Z"/></g>
<g><path style="opacity:0.992" fill="#f2a796" d="M 386.5,165.5 C 387.024,178.604 383.024,189.937 374.5,199.5C 367.967,204.699 361.467,204.699 355,199.5C 354.219,198.271 353.719,196.938 353.5,195.5C 354.989,188.721 356.322,182.055 357.5,175.5C 357.754,179.939 358.588,184.272 360,188.5C 363.339,191.057 365.172,190.057 365.5,185.5C 364.685,180.868 364.352,176.201 364.5,171.5C 368.437,171.793 372.27,171.46 376,170.5C 376.684,169.216 376.517,168.049 375.5,167C 372.649,165.711 369.649,165.211 366.5,165.5C 367.693,161.451 369.693,157.784 372.5,154.5C 371.788,152.954 370.622,151.954 369,151.5C 363.215,155.054 360.381,160.054 360.5,166.5C 359.833,166.5 359.167,166.5 358.5,166.5C 358.5,166.167 358.5,165.833 358.5,165.5C 359.034,157.501 359.7,149.501 360.5,141.5C 368.407,139.044 375.24,140.71 381,146.5C 384.509,152.49 386.342,158.824 386.5,165.5 Z"/></g>
<g><path style="opacity:1" fill="#30306d" d="M 216.5,176.5 C 214.621,177.341 212.621,177.675 210.5,177.5C 203.767,168.729 202.933,159.395 208,149.5C 211.333,145.5 214.667,145.5 218,149.5C 222.972,158.833 222.472,167.833 216.5,176.5 Z"/></g>
<g><path style="opacity:1" fill="#30306d" d="M 299.5,176.5 C 297.958,177.301 296.292,177.634 294.5,177.5C 292.496,176.327 290.996,174.66 290,172.5C 286.358,164.629 286.691,156.963 291,149.5C 294.333,145.5 297.667,145.5 301,149.5C 306.06,158.877 305.56,167.877 299.5,176.5 Z"/></g>
<g><path style="opacity:1" fill="#e7847d" d="M 149.5,158.5 C 150.369,160.717 150.702,163.05 150.5,165.5C 150.5,165.833 150.5,166.167 150.5,166.5C 148.62,166.229 147.287,166.896 146.5,168.5C 145.596,169.209 145.263,170.209 145.5,171.5C 142.15,171.665 138.817,171.498 135.5,171C 134.14,169.062 134.473,167.396 136.5,166C 139.146,165.503 141.813,165.336 144.5,165.5C 142.777,161.33 140.944,157.33 139,153.5C 140.133,151.789 141.633,151.289 143.5,152C 145.734,154.063 147.734,156.229 149.5,158.5 Z"/></g>
<g><path style="opacity:1" fill="#e9857c" d="M 357.5,175.5 C 357.5,175.167 357.5,174.833 357.5,174.5C 359.722,174.822 361.556,174.155 363,172.5C 363.972,169.706 363.139,167.706 360.5,166.5C 360.381,160.054 363.215,155.054 369,151.5C 370.622,151.954 371.788,152.954 372.5,154.5C 369.693,157.784 367.693,161.451 366.5,165.5C 369.649,165.211 372.649,165.711 375.5,167C 376.517,168.049 376.684,169.216 376,170.5C 372.27,171.46 368.437,171.793 364.5,171.5C 364.352,176.201 364.685,180.868 365.5,185.5C 365.172,190.057 363.339,191.057 360,188.5C 358.588,184.272 357.754,179.939 357.5,175.5 Z"/></g>
<g><path style="opacity:1" fill="#f7c4b7" d="M 344.5,185.5 C 341.84,198.313 337.673,210.646 332,222.5C 328.963,228.066 324.463,231.4 318.5,232.5C 316.833,232.333 315.167,232.167 313.5,232C 307.83,229.167 302.497,225.834 297.5,222C 290.707,219.813 284.04,220.146 277.5,223C 268.281,228.855 258.281,231.188 247.5,230C 240.167,227 232.833,224 225.5,221C 221.833,220.333 218.167,220.333 214.5,221C 208.701,224.068 203.034,227.401 197.5,231C 189.714,234.402 183.547,232.569 179,225.5C 172.092,212.946 167.259,199.612 164.5,185.5C 176.912,200.917 192.912,206.751 212.5,203C 232.013,196.48 243.18,182.98 246,162.5C 251.293,156.231 256.96,155.897 263,161.5C 264.207,175.081 270.04,186.247 280.5,195C 304.512,209.83 325.845,206.663 344.5,185.5 Z"/></g>
<g><path style="opacity:1" fill="#a5a7c1" d="M 351.5,152.5 C 352.485,156.634 352.818,160.968 352.5,165.5C 354.5,165.5 356.5,165.5 358.5,165.5C 358.5,165.833 358.5,166.167 358.5,166.5C 356.167,166.5 353.833,166.5 351.5,166.5C 351.5,161.833 351.5,157.167 351.5,152.5 Z"/></g>
<g><path style="opacity:1" fill="#8789ac" d="M 157.5,153.5 C 157.5,157.833 157.5,162.167 157.5,166.5C 155.167,166.5 152.833,166.5 150.5,166.5C 150.5,166.167 150.5,165.833 150.5,165.5C 152.5,165.5 154.5,165.5 156.5,165.5C 156.183,161.298 156.517,157.298 157.5,153.5 Z"/></g>
<g><path style="opacity:1" fill="#e5837c" d="M 148.5,174.5 C 149.833,174.5 151.167,174.5 152.5,174.5C 152.5,177.167 152.5,179.833 152.5,182.5C 152.377,185.374 151.377,187.874 149.5,190C 148.004,190.507 146.837,190.007 146,188.5C 145.856,184.496 146.189,180.496 147,176.5C 147.278,175.584 147.778,174.918 148.5,174.5 Z"/></g>
<g><path style="opacity:1" fill="#2b2e6d" d="M 152.5,174.5 C 154.857,174.337 157.19,174.503 159.5,175C 161.05,178.598 162.716,182.098 164.5,185.5C 167.259,199.612 172.092,212.946 179,225.5C 183.547,232.569 189.714,234.402 197.5,231C 203.034,227.401 208.701,224.068 214.5,221C 218.167,220.333 221.833,220.333 225.5,221C 232.833,224 240.167,227 247.5,230C 258.281,231.188 268.281,228.855 277.5,223C 284.04,220.146 290.707,219.813 297.5,222C 302.497,225.834 307.83,229.167 313.5,232C 315.167,232.167 316.833,232.333 318.5,232.5C 324.463,231.4 328.963,228.066 332,222.5C 337.673,210.646 341.84,198.313 344.5,185.5C 346.153,182.193 347.82,178.86 349.5,175.5C 352.086,174.52 354.753,174.187 357.5,174.5C 357.5,174.833 357.5,175.167 357.5,175.5C 356.322,182.055 354.989,188.721 353.5,195.5C 353.719,196.938 354.219,198.271 355,199.5C 361.467,204.699 367.967,204.699 374.5,199.5C 379.19,228.947 369.856,252.78 346.5,271C 331.772,281.392 316.772,291.392 301.5,301C 298.479,302.18 295.479,303.346 292.5,304.5C 292.5,303.5 292.5,302.5 292.5,301.5C 292.838,296.814 293.005,292.147 293,287.5C 268.127,299.028 243.127,299.361 218,288.5C 218.602,294.649 218.435,300.649 217.5,306.5C 208.486,302.825 199.819,298.325 191.5,293C 180.167,285 168.833,277 157.5,269C 136.465,251.738 128.131,229.572 132.5,202.5C 131.831,198.82 131.164,195.154 130.5,191.5C 133.311,196.476 137.311,200.309 142.5,203C 148.735,204.704 153.401,202.871 156.5,197.5C 155.403,192.308 154.07,187.308 152.5,182.5C 152.5,179.833 152.5,177.167 152.5,174.5 Z"/></g>
<g><path style="opacity:1" fill="#f6b0a8" d="M 216.5,176.5 C 216.369,177.376 216.702,178.043 217.5,178.5C 221.86,178.85 225.527,180.517 228.5,183.5C 218.722,193.813 206.722,197.647 192.5,195C 189.022,193.76 185.689,192.26 182.5,190.5C 182.491,188.692 182.991,187.025 184,185.5C 191.69,179.319 200.523,176.652 210.5,177.5C 212.621,177.675 214.621,177.341 216.5,176.5 Z"/></g>
<g><path style="opacity:1" fill="#f6afa8" d="M 299.5,176.5 C 307.352,177.55 315.019,179.717 322.5,183C 325.397,184.715 326.731,187.215 326.5,190.5C 313.422,197.329 300.422,197.163 287.5,190C 284.712,188.281 282.379,186.115 280.5,183.5C 281.749,181.864 283.416,180.697 285.5,180C 288.742,179.594 291.742,178.761 294.5,177.5C 296.292,177.634 297.958,177.301 299.5,176.5 Z"/></g>
<g><path style="opacity:0.98" fill="#866481" d="M 128.5,188.5 C 130.048,188.821 130.715,189.821 130.5,191.5C 129.599,190.71 128.932,189.71 128.5,188.5 Z"/></g>
<g><path style="opacity:1" fill="#e9857d" d="M 252.5,189.5 C 256.677,188.842 258.177,190.508 257,194.5C 253.484,200.677 249.984,206.843 246.5,213C 248.751,216.556 251.918,219.056 256,220.5C 257.08,223.237 256.246,224.904 253.5,225.5C 241.723,222.941 238.223,216.274 243,205.5C 246.934,200.634 250.1,195.301 252.5,189.5 Z"/></g>
<g><path style="opacity:1" fill="#8d90b1" d="M 276.5,236.5 C 261.794,235.85 247.461,236.517 233.5,238.5C 232.596,237.791 232.263,236.791 232.5,235.5C 247.343,235.171 262.01,235.504 276.5,236.5 Z"/></g>
<g><path style="opacity:1" fill="#fcfcfd" d="M 276.5,236.5 C 270.995,249.253 261.328,254.086 247.5,251C 241.318,248.428 236.651,244.261 233.5,238.5C 247.461,236.517 261.794,235.85 276.5,236.5 Z"/></g>
<g><path style="opacity:1" fill="#f3a897" d="M 292.5,301.5 C 268.34,314.442 242.673,322.776 215.5,326.5C 217.047,319.942 217.714,313.275 217.5,306.5C 218.435,300.649 218.602,294.649 218,288.5C 243.127,299.361 268.127,299.028 293,287.5C 293.005,292.147 292.838,296.814 292.5,301.5 Z"/></g>
<g><path style="opacity:0.994" fill="#f8c4b7" d="M 292.5,301.5 C 292.5,302.5 292.5,303.5 292.5,304.5C 292.813,317.059 295.48,329.059 300.5,340.5C 280.481,353.503 258.814,357.003 235.5,351C 226.693,348.091 218.027,344.925 209.5,341.5C 212.316,336.863 214.316,331.863 215.5,326.5C 242.673,322.776 268.34,314.442 292.5,301.5 Z"/></g>
<g><path style="opacity:1" fill="#646db2" d="M 300.5,340.5 C 354.139,370.988 407.806,401.488 461.5,432C 484.084,453.562 494.417,480.062 492.5,511.5C 334.5,511.5 176.5,511.5 18.5,511.5C 16.5831,480.062 26.9164,453.562 49.5,432C 102.726,401.556 156.059,371.39 209.5,341.5C 218.027,344.925 226.693,348.091 235.5,351C 258.814,357.003 280.481,353.503 300.5,340.5 Z"/></g>
</svg>
