<svg version="1.2" xmlns="http://www.w3.org/2000/svg" viewBox="0 0 2040 208" width="300" height="31">
	<title>vecteezy_vector-set-of-hand-drawn-underline-and-frames_6205996-eps</title>
	<defs>
		<clipPath clipPathUnits="userSpaceOnUse" id="cp1">
			<path d="m-248-471h4688v6563h-4688z"/>
		</clipPath>
	</defs>
	<style>
		.s0 { fill: #000000 } 
	</style>
	<g id="Page 1" clip-path="url(#cp1)">
		<path id="Path 3" fill-rule="evenodd" className="s0" d="m586.9 4704.1c68.1 1.4 136.4-0.7 204.2 4.4 26.2 1.9 53.3 4.2 78.2 1.5 28.3-3 56.4 3.6 84.4-2.5 11.5-2.5 23.9-0.4 36.1 3.8 22.1 7.7 45.4-0.3 68.2 1.9 20.9 2 42 1.9 61.9 10.1 6.5 2.7 10.3-4.6 17.1-5 26.1-1.8 51.9-0.2 77.8 2.2 15.1 1.3 30 0.4 45.2-2.9 18.1-3.8 35.5 6.6 54.1 6.1 26.2-0.8 52.6 0.6 78.6-0.3 18.9-0.6 37.1 2.8 55.7 3.2 9.1 0.2 8.9 6.9 5.9 13.5 10.3-21.7 29.4-11 43.5-8.3 9.7 1.9 16.5 1 25.7-0.4 18.6-3 38.3-4.5 56.8 2.3 3.5 1.4 7.2 4.2 10.6 3.1 5.7-1.9 11.4-5.1 14.6 2.5 3.5 8.2-4.7 10.4-8.9 14.4l0.6 0.3q0 0-0.1 0.1h0.1q0 0 0 0 0 0-0.1 0.1c4.8 4.5 12.2 12.7 14.8 1.8 6.9-28.9 29.5-23.3 47.3-22.4 28.6 1.6 57.6-3.4 86.1 8.5 10 4.2 26.6-5.3 41-4 32 2.9 65.1 0.8 95.7 8.7 25.4 6.5 52.2 1.4 76.3 12.6 8.2 3.8 16.3-1.5 24.8-1.4 11.4 0.2 19.8 4.3 29 18.2-2.4-15.4 3.9-18.3 12.3-18.4 9.3-0.1 16.8 9 16 13.8-1.7 9.7 6.1 13.6 12.3 25-14.8-8.7-24.6-11.1-36.2-7.4-8.9 2.8-21.1 4.5-16.9-15.7-14.6 24.3-36.2 11.9-54 15.4-1.9 0.3-7.7-1.2-4.2-5.7 8.5-11.1-2.8-6.9-6.2-8-5.1-1.6-12.6-5.4-9.4 6.2 0.3 1 0.9 1.8 1.4 2.8-1.8 0.4-3.7 1.4-5.4 1-11.2-2.7-24.9 6.8-33.9-7.1-0.7-1.2-3.4-1.9-5-1.6-14.5 2.4-29.2 6.8-36.2-13-0.9-2.7-7.3-1.8-6.4 4.4 0.6 4.8 8.5 11.1-1.2 13.8-11.1 3.1-6.3-10.6-12-13.9-9.7 15.1-8.2 13.7-22.1-1-7.4-7.9-16.7 6.4-26.5 6.4-3.9 0.1 10.7 5 0.1 4.4-25-1.4-50.7 4.5-75.1-6.8-6-2.8-14.5-4.9-20.2-2.8-12.2 4.4-17.1 3-19-10.9-1.1-7.4-18.9-4.3-25.9 4.6-17.7 22.6-22 23.5-49.9 11.3-0.1-0.1-0.5-0.5-1.1-1.2q0 0.1 0 0.1 1 1 1.1 1.1c3.8 4.9 10 9.8 5.1 16.5-3.8 5.3-10.5 3-16.2 2.1-20.8-3.4-44 4.6-61.5-13.3q-0.1 0-0.2 0-0.2-0.3-0.3-0.5l1.2 0.5c-7-3.8-14.2-5.7-22-2.3-2.3 1-6.5 2.2-4.9 4.5 12.3 18.4-9 9.1-9.5 9.1-15.8-0.2-24.4-6.9-18.5-24.3q-0.1 0-0.1 0c-11 6-13.7 25.1-33.1 19-6.7-2.1-15.9 3.9-7.2-9.4 2.5-3.8-3.6-4.6-6-4.3-4 0.6-12.6-1.9-11.5 1.3 8.1 23.5-10.8 7.2-15.9 10.6-3.3 2.3-9.7 0-14.3-0.2-2.3-6.5 8.7-5.3 5.2-11.1-4.1-6.6-10.5-2.5-16-2.2-7.6 0.4-4 4-2 7.2 1.5 2.4 2.2 5.8-1.5 5.8-8-0.2-18.7 6.1-23.6-2.2-11.6-19.7-33-10.4-48.3-18.6-5.5-2.9-13 3-13.2 8.1-0.9 15-9.2 10.9-18.6 10.5-19-0.8-38.6 4.5-57-1.7-21.1-7-41 1.2-61.4 1.5-7.5 0-20.6 5.7-12-11.6 2.4-4.8-2.4-4.7-5.3-5.1-6.8-1-13.5-1.8-20.5-2.6 7.2 16.8 1.8 24-20.2 19.6-30.2-6.1-59.9-2.4-89.9-1.6-22.9 0.6-45.7 2.7-68.7-1.3-7.8-1.4-19.3-2-11.8 12.9 3.2 6.3-0.2 8-5.9 8-9.1-0.1-18.1 0-28 0 5.5-5.1 10.3-9.5 15.1-13.9q-0.1-2.5-0.3-5c-35 1.2-70 2.6-105.3 3.5 8.2 5 12.2 16.8 24.4 12.6-22.2 8.1-44.4 7.1-66.7 3.3q-0.1 0-0.1 0.1-1.8 0.5-3.6 1 0 0 0 0c-19.9 4.6-40.7 4.1-60.3 4.5-31.7 0.5-63.5 3.6-94.8 6.1-52.4 4.1-104.9 9.4-157.2 16.5-62.1 8.6-123.8 19.1-185.5 29.9-64.2 11.3-127.6 26.1-188.5 49.8-12 4.7-23.3 11.3-35.5 15.5-13.8 4.6-30.7-4.2-33.5-17.2-3.4-15.9 5-25.3 19.2-31.1 65.7-26.8 133.3-47.6 203.2-59.8 54.5-9.6 109.5-16.7 164.1-25.6 64.3-10.6 129.3-15.8 194.1-22.1 42.2-4.1 84.7-4.5 127-6.9 8.9-0.5 17.6-2.3 26.4-7.8-16.6 0-33.2 0.3-49.8 0-16.6-0.3-33.2-1.8-49.8-1.6-9.3 0.2-11.1-7.7-17.6-13-6.1 15.9-19.3 14.7-32.7 14.3-98.5-2.5-196.7 4.2-295.1 6.6-77.4 1.9-154.9 6.6-232.5 2.5-20.3-1.1-40.8 4.1-61-4.3-6.8-2.8-13.2-5.6-17.8-10.7-6-6.6-11.6-16-8.9-24.2 2.6-7.4 13.1-6 20.8-6.7 95.5-8.4 191.3-2.2 286.9-4.7 88.6-2.4 177.3-5.8 266-5.9 20.4 0 40.9 0.1 61.3 0.5zm867.2 36.3q0.1-0.1 0.2-0.3-0.1 0.2-0.2 0.3zm51.1 59.6c-2.3-10.7-5.9-22.3 10.5-21.7 9.2 14-7 14.5-10.5 21.7zm-606.9-56.6c9.5 0.7 19.1 0.3 30.5 0.3-11.4 0-21 0.4-30.5-0.3-2.2-0.1-6.8-0.2-7.3-3.5 0.5 3.3 5.1 3.4 7.3 3.5zm422.4 8.8c4.1 4.5 10.6 1.6 18.7-1-8.1 2.6-14.6 5.4-18.7 1zm268.2 1.7q0.5 0 1.1-0.1-0.6 0.1-1.1 0.1zm-3.3 0.9q1.3-0.5 2.8-0.8-1.5 0.3-2.8 0.8zm-1.3 0.5c-4.2 1.9-7.2 5.3-9.8 9.2-3.7 5.4-6.7 11.7-11.3 16.3 5.8 1.8 11.2 3.5 15.6 2.8-4.4 0.7-9.8-1-15.5-2.8 4.5-4.6 7.5-10.9 11.2-16.3 2.6-3.9 5.6-7.3 9.8-9.2zm1.3-0.5q-0.7 0.2-1.3 0.5 0.6-0.3 1.3-0.5zm520.5 14.8c6.9 0.5 13 3.9 20.6 1.1 14.5-5.4 14.3 14.7 25.4 16.3-5 7.3-11.7 4.2-18.6 3.6-4.8-0.4-15.4-9.4-13.5 6.2-5.8-2.4-12.9-3.5-17.3-7.5-4.8-4.4-4.3-8-9 0.9-3.9 7.4-40.3-6.2-42.4-15.4-1.2-5.2 2.9-6.9 6.9-6.9 16 0.3 32 0.7 47.9 1.7zm55.2 4c8.4 1.2 17.5 2.6 23.2 10.4 6-13.8 17.9-4.5 26.8-6.2 7.7-1.4 9.5 6.9 9.1 13.9 0 0-0.3 0.4-0.3 0.4-9 4-18.4 20.6-26.3-1.5-1.2-3.3-7.1-5-10.8-7.4-2.1 8-10.2 12-15.3 15.6-12.1 8.4-6.6-11.8-15-12.2-4.4-8.1-2.5-13 5-13.2q1.6 0 3.6 0.2zm-8.9 12.9c0 0 0.6 0.6 0.6 0.6q-0.5 0-0.9-0.1 0.1-0.2 0.3-0.5zm0.6 0.6q0 0 0 0 0 0 0 0zm113.1-3.2c2.8 2.3 9.3 5.4 5.9 10.4-3.6 5.3-10.1 9.8-16.5 5-7.6-5.8-12.6-8.1-20.9 0.1-6.9 6.8-12.6 1.3-14.5-7.2 0-0.1 0.3-0.5 0.3-0.5 8.3-10.4 36.5-15.7 45.7-7.8zm-113.1 3.2c0 0-0.6-0.6-0.6-0.6q0.2 0 0.3 0.1 0.2 0.2 0.3 0.5zm-412.1 6.9c4.4 0.9 3.7 5.6 2.2 9.3-19.8-7.2-40.6-7.6-60.4-3.9-10.1 1.9-15.4 1.6-21.1-5.9 10.1-8.7 20-11.6 30-11.5 16.5 0.2 32.9 8.6 49.3 12zm2.3 9.3c2.7-5 6.3-10 12.5-8.3 4.7 1.2 9.4 3.6 11.1-1.9 1.9-6.1-8.8-1.1-8.3-11 12.8 9 32.1-4.3 39.7 17.7 1.7 4.9 20.3-1.7 21.6-8.4 0.2-1.1-2.5-2.5 1.3-2.9 6.4-0.6 9.7 3.1 10.9 8.6 1.3 5.6 3.1 12.2-2 16.4-6 4.7-6.8-5-9.8-5.1-16.7-0.7-33.8 4.5-50-4.5-1.1-0.7-9.5 1.7-8.3 8.3 0.6 3.7 0.2 7.3-3.8 6.8-3.5-0.4-8-3.8-6.1-8 6.5-14.1-4.3-7-8.8-7.7 0 0-0.3 0.5-0.3 0.5q0.1-0.3 0.2-0.5 0 0 0.1 0zm-1050.3-12.7q0 0 0 0c27.8-11.6 54.2-9.7 81.2-0.2q0 0 0.1 0c-13.6-4.8-26.9-7.6-40.4-7.9-13.5-0.2-27 2.3-40.9 8.1zm353 6.2h-49.3c9.5-3.2 18-5.1 26.1-5.3 8-0.2 15.6 1.5 23.2 5.3zm890.1-0.4c7 0.6 12.7 4.5 13 11.6 0.4 9.4-11 10.1-13.9 8.9-16.6-7.2-35.9 5.1-51.8-9.2 11.7-9.4 25-11.8 38.8-11.9 4.6 0 9.3 0.3 13.9 0.6zm102.5 25.8c-4.3 0.2-8.8-0.3-12.9 0.9-14.6 4.1-23.2 2.2-33.7-9.5 4.3-0.9 8.4-1.3 12.4-1.3 11.9 0.1 23 4.1 34.2 9.9zm150.2 7c2.9 3.9 8.2 4.7 9.9 3.7 20.3-11.3 39.8 2.1 63.3-0.3-24.4 10.3-44.9 22.4-67.3 5.6-13.9 8.9-19.2-6.2-29.9-9.1 7.2-6.1 10.9-9.1 13.9-9.1 3 0 5.4 3 10.1 9.2zm-74.4-6.7c-7.4 5.4-19.2 4-20.5 16.6-0.3 3-2.6 3.2-5.2 0.6-3-3.1-6.9-4.8-4-10.7 3.3-6.6 7.4-8.4 11.9-8.4 5.7-0.1 12 2.7 17.8 1.9zm248.4 24.8c5.6 1 3.5 3.9 2.4 6.7-1.1 2.8-3.8 8.1-5.8 5.1-7.8-12-19.7-4.1-31.2-6.6 5.9-5.5 11.7-7.3 17.5-7.4 5.7-0.2 11.5 1.3 17.1 2.2zm-1342-1225.1c45.5-2.9 93.2-4.7 140.3-11.7 57.1-8.3 114.2-16.3 170.9-26.8 42.8-7.9 85-19 127.2-29.7 33.5-8.4 48.5-0.4 51.8 32.7 1 10.4 7.5 9.8 12.7 10.6 32.5 4.9 64.9 7.7 98 3 29.1-4 58.7-5.3 88-8.3 48.7-4.8 96.6-14.8 144.9-21.8 46.2-6.7 92.5-10.5 139-14.2 55.9-4.4 112-2.7 167.9-5.9 43.2-2.4 85.9 1 128.6 3.7 13.3 0.9 26.1 5.3 40.1 3.5 15.4-1.9 25.3 12 38.1 17.8 3 1.3 2.2 4.3 1.2 6.8-1.2 2.6-3.1 3.7-6.1 3.8-34.1 1-67.3 11-102.2 6-59.3-8.3-119.3-2.8-178.9-3.4-37.9-0.4-76.6 8.7-115.2 10.1-59.5 2.1-117.3 16.4-175.5 25.9-56.1 9.1-112.4 16.4-168.8 22.2-42.4 4.4-84.9 4.5-126.3-9-13.4-4.3-25-10.8-32.4-23-6.1-10.1-12.6-10.8-24.1-7.6-62 17.2-125.6 26.8-189 36.2-73 10.8-146.3 21.4-220.2 22.1-38.4 0.3-77.1-2.8-112.6-21.8-25.8-13.8-40.3-34.1-41.8-63.6-0.3-5.8-1.2-11.5 3.7-16.2 4.2-4.2 8.7-10 5.4-15.4-3.4-5.7-10.9-2.1-16-1.3-45.9 6.5-91.6 14.4-137.5 20.6-40.1 5.4-80.3 9.5-120.5 14-45.5 5-91.1 6-136.5 11.7-33.4 4.2-67.7 5.1-100.5 11-49.6 8.9-99.6 12.6-149.4 17.5-56.2 5.5-113.1 8.8-169.6-1.6-10.1-1.8-15.9-8.3-22.1-14.3-6.1-6.1-8.5-15-4-23.3 4.4-8.4 13.1-7.3 20.7-6.1 83.8 12.9 167.2 6 250.7-3.4 60.2-6.7 120.7-11.5 180.8-19.1 97-12.3 194.8-18.6 291.3-35.8 78.4-14 157.8-21.9 235.8-38.7 14.1-3 28.5-3.3 38.4 10.9 9.5 13.8 6.6 25.5-7.9 33.3-32.6 17.5-67.2 30.8-98.7 50.3-6.4 3.9-13.1 6.6-13.4 14.7-0.4 8.8 5.5 14.1 12.7 18 24.7 13.6 52 13.2 81 15.6zm-100.6-1286.3c27.5-2.9 53.7-2.2 79.6-3.9 100.1-6.8 200.1-13.9 300.5-16.5 70.6-1.9 140.9-0.6 211.3 1.5 45.9 1.3 91.8 4.2 137.7 7.3 19.9 1.3 36.3 15.5 57.3 16.2 23.7 0.8 47.3 2.9 71 2.2 50.7-1.4 101.4-0.8 152-3.3 84.2-4.2 168.3-11.3 252.5-15 34.7-1.6 69.6-2.1 104.5 1 11.8 1 10.9 7.8 5.1 11.1-13.9 8-28.5 14.6-45.6 15.5-10.1 0.6-20.1 4.8-30.9 5.6-49.6 4-99.1 10.6-148.8 13.8-41.5 2.7-83.2 4-124.7 6.1-52.2 2.6-104.4 3.3-156.6 4.8-55.8 1.7-111.2 1.7-166-14.5-24.8-7.4-52.2-8.1-78.4-8.2-21.2-0.1-41.9-2-62.8-4-10-1-20.2 1.9-30.3 1.8-62-0.6-124 0.5-186 0.6-73.9 0.2-147.4 5.4-220.8 11.1-59.7 4.6-119.4 5.7-179.1 7.4-26.1 0.8-51.3-4.2-75.1-15.3-13.5-6.2-21.4-15.7-19-31.6 1.3-8-1.8-10.7-10-9.1-26 5.1-52.2 3.6-79 10.3-35 8.8-73.3 9.8-110.1 14.2-44.3 5.2-89.4 6.9-132.7 19.2-20.4 5.8-41.7 2.9-62.5 7.8-43.8 10.5-88.9 14.2-132.7 25.7-21.7 5.8-44.4 8.6-66.6 11.8-53.1 7.8-103.4 27.2-156.5 34.4-15.3 2-29.5 1.8-41-9.9-4.9-5-11.5-10.2-7.2-18.3 3.5-6.7 8.8-12 17.2-13.5 101.4-17.8 202.9-34.5 303.9-54.1 77.7-15.1 155.7-29.5 234.2-38 74.2-8 148.3-17.3 222.6-24.9 63.4-6.6 127-11.3 190.5-17.6 60-5.9 120.7-6.6 181.1-8.2 13.8-0.4 24.8 9.5 25.9 24 1.2 16.8-13.6 16.9-24.6 17.4-62.8 2.4-124 15.9-185.6 26.5-4.4 0.7-10.5 0.3-14.3 8.6zm619.6-95c32.4 5.3 63.1-1.5 93.8-4 63.5-5.3 127.1-7.7 190.6-11.3 87.1-4.9 173.8 1.4 260.6 3.2 62.4 1.2 124.8 3.1 187 7.4 18.6 1.3 40-3 56 12.4 1.8 1.7 7.6-2.6 6.2 3.7-0.5 2.2-2.8 5.5-4.4 5.6-34.5 1.3-65.7 21.9-101.7 15.8-21.7-3.6-43.7 3.8-65.4 4.5-26.8 0.9-53.7-5.3-80.6-6.5-68.4-3.3-136.6-10-205.2-5.2-45.5 3.2-91.3 0.4-136.8 2.9-49.5 2.7-98.8 8.9-148.2 12.6-30.6 2.3-61.3 3.1-91.4-5.8-13.4-4-24.7-11.5-29.2-23.5-6.7-17.7-19.4-19.1-34.1-17.4-37.6 4.6-75.4 8.6-113 13.7-41.7 5.7-83.5 16.6-126.3 8.7-15.7-2.9-31-4.7-40.6-21.7-5.3-9.3-19.4-6.1-29-5.6-55.8 3-111.5 7.9-167.3 10.5-33.5 1.6-67.2 7.5-100.5 8.9-51.3 2.2-101.1 13.7-152.2 17.2-64 4.5-127.6 16.6-191.3 25.8-75.2 10.8-150.8 19.6-225.4 34-60.1 11.7-120.4 20.8-181.1 28.3-21.1 2.6-42.2 3.9-63.4-0.6-9.5-2.1-16.6-7-23.1-13.3-11.2-11-8.7-22.8 6.2-28.2 14.9-5.3 30.8-6.2 46.1-4.4 53.8 6.3 106.1-5.4 158.7-12.7 65-9.1 129.6-20.9 194.7-29.6 51.9-7 103.3-17.8 155.3-23.8 104.5-12.2 208.5-28.8 313.7-35.1 80.2-4.9 160.4-12.9 240.7-16.6 25.5-1.2 51-3.1 76.6-3.4 10.2-0.1 20.9 1.2 25.7 10.4 9.5 18.1 24.7 15.3 39.8 13.2 60.1-8.3 120-16.8 180.4-21.7 19.6-1.5 38.9 1.6 57.9 4.1 25.5 3.3 32.1 19.8 20.2 47.5zm1109.1 840.6c-27.9 1.6-54.4 16.7-82.7 8.6-17.8-5-34.5-5.3-51.3 2.4-1.8 0.8-4.4 2.6-5.3 2-26.3-17-55.6-2.6-83.4-7.8-22.1-4.2-46 2.5-68.7 0.7-32.1-2.5-64.1-0.1-96.2-2.4-24.5-1.7-50.6 5-74.6-0.6-21.2-4.9-34.5 11.6-52.6 11.3-6-0.1-13.7 4.4-17.2-6.7-1.2-3.9-10.1-8.1-12.8 4-1.4 6.6-10.7 4.5-16.9 4.6-58.5 0.5-116.9 0.3-175.3 1.9-53.3 1.4-106.5-2.4-159.5-5.2-47.4-2.5-94.3-15.5-141.6-16.9-71.9-2-144 1.8-216 3.9-17.6 0.5-34.9-1.5-51.6-4.9-41.4-8.6-82.5-1.5-123.6 0.8-55.4 3.1-110.9 0.9-166.3 3.5-51.1 2.5-102.2-0.5-153.4 5.1-45.2 5-91.3 8.7-136.4 9.2-52 0.6-103.4 6.7-154.7 11.4-34.1 3.2-68.8 8-102.9 10.7-37.1 3.1-74.5 7.6-111.1 12.2-41.3 5-83.2 12-124.3 21.7-52 12.2-105.6 17.3-159.1 19.8-9.9 0.4-19.2-2.2-28-6.5-10.9-5.3-17.8-13-14.2-26.1 3.5-12.9 14.1-17 25.3-15.7 61.9 7.1 121.7-6.9 182.3-14.7 45.2-5.7 90.4-12.3 135.7-17.3 49.4-5.3 98.9-10.6 148.1-17.1 63.1-8.4 126.6-12.6 190-17.7 86.5-7 173-11.7 259.8-13.5 74.7-1.5 149.6-2.8 224.2-7.6 27.8-1.7 56.9 2.2 84-9.9 5.3-2.4 13.4-2.1 19 0 58.5 21.8 118.7 9.2 178.2 9.6 30 0.1 59.8-5.2 89.5-10.1 4.1-0.8 9.3 0 13.1 1.9 35.1 18.3 74 16.4 111.5 20.6 72.5 8.1 145.6 10.1 218.4 9.4 73.6-0.7 147.2-1.4 220.9-1.3 91.1 0.2 182.3 4.9 273.4 7.7 38.6 1.3 77.3 2.8 115.9 4.3 30.7 1.1 60.6 6.9 90.4 14.7zm-502.9-2333.8c-15 17.6-26.4 19.7-38.1 3.2-5.5-7.8-14.2-1.3-21-2.6-4.6 10.9 16.4 4.3 8.7 13.9-3.3 4.1-13.3 13-19.8 0-9.8 5-19.7 8.9-30.9 4.5-22.4-9-45.4 1.4-67.3-1.6-36.8-5-72.9-1.9-109.4-0.8-7.9 0.2-18.3 1.9-19.5-11.6-0.2-2.5-4-7.2-8.7-5.7-2.1 0.7-5.4 3.7-5.1 5 3.2 14.4-7.5 10.4-14.2 10.7-12.8 0.5-25.7 0.1-38.6 0.6-21.4 0.9-42.2 1-59.6-15.2-1.6-1.5-4.5-14.6-10.8-4.5-6.2 9.8 7.5 7 10.2 12.3-4.9 7.2-11.7 9.4-19.9 7.2-15.5-4.1-32.2-2.7-47.8-4.7-18-2.4-40.5-1.9-60.3 3.7-3.9 1.1-7 1.5-10.9 1.2-40-3.3-79.4-0.4-119.3 4.3-16.8 2.1-35.7-0.4-53.8 0.2-30.5 1.1-61.2 1-91.7 3.1-45.5 3.3-90.8 10.3-136.3 11.9-58.9 2-117.1 13.6-176.3 10.9-21.3-1-42.8-1.6-63-8.4-15.5-5.1-32.9-11.7-28.9-34.6 0.6-3.8-0.1-6.3-6.1-7-40.2-4.6-80.4-4-120.9-4.2-42.6-0.3-85.4 0.9-127.7 2.4-22.9 0.8-48-3.7-71.9 7.8-11 5.3-27.8-1.5-42.8 1.8-20.7 4.6-42.8 2.6-62.3 13.8-6.2 3.6-12.4-2-18.7-3.1-14.2-2.5-27.5-2.3-38.6 8.8-1.1 1.2-3.6 2.6-4.7 2.1-19.6-8.4-37.8 3.6-56 6.1-16.9 2.3-32.6 6.5-50.6 6-10.1-0.3-22.6 12-36.1 13.8-82.8 11.2-160.5 42.3-241 62.5-15 3.8-30.1 5.6-38.9-10.8-8.5-15.7 1.5-36.1 21.2-38.8 62.7-8.5 121.9-30.9 183.5-44.2 88.4-19 177.1-36.7 266.8-48.3 47.6-6.2 95.8-9.7 144.2-11.1 43.3-1.3 86.7-9.4 130.4-9.4 48.1-0.1 96.2 3.7 144.5 0.5 20-1.3 40.6 4.5 60.8 7.8 9.1 1.5 19.7 5.8 21.7 14.4 5.4 23.7 23.5 21.3 40.2 22.6 44.6 3.6 89-0.7 133.2-4.4 83.6-6.8 167.1-13.2 251-14.2 102.6-1.3 205.2-7.1 307.8-2.8 81.7 3.4 163.5 1.4 245.2 3.9 9.4 0.3 23.3-5.6 28.2 10 0.1 0.2 3.8 0.1 4.6-0.9 11-13.3 25.5-6.4 37.9-5.4 49.8 3.8 99.6 6.1 149.5 7.5 29.4 0.8 59 4.5 88 9.6 22.1 3.8 45.3-2.4 66.6 7.9 2.4 1.2 8.1-4.7 7.4 3.3-0.3 3.6-3.4 6.9-6.6 4.7-15.5-10.5-34 9.2-49.3-5.7-5.2-5.1-8.5-0.7-9.8 5.8-0.7 3.4-3.7 6.6-6.4 9.2-1.9 1.8-36.9-9.7-38.5-12.1-8-12.9-23.4-13.9-33.2-0.6-9.7 13.2-23.4 5.3-34.9 8.4-6.3 1.7-6.5-8.8-5.4-20.7zm-243.1-7.9c-4.6 3.7-13.3 3.7-15.3 11.4-1.1 4.2 1.5 9.8 7.4 8.7 6.9-1.4 16.4-0.6 18.5-9.6 0.6-2.5-3.2-9.5-10.6-10.5zm-588.2-656.2c1.5-6.2 10.6-7.3 7.4-13.5-2.8-5.5-8 0.2-12.1-0.1-14.1-1.1-28.3-4-35.3 14.4-0.6 1.6-18 10.7-24-4.3-1.1-2.8-5.7-6.9-5.8-6.8-15.3 12.1-34.9-10.1-49.8 6.5-4 4.4-7.8-1.7-11.7-3.3-12.8-5.2-26.1-12.7-36.7 3.8-4.2 6.6-6.5 0.2-8.3-1.5-9.5-9.2-20.4-6.8-31-3.7-5.3 1.6-9.7 7.4-15 8.3-9.9 1.8-2.3-9.1-5.6-10.2-6.6-2.1-12 6.1-19.7 3.8-5.5-1.7-14.2-7.4-13.6 6.4 0.1 3.3-2.4 8.4-7.7 4.6-22.3-16.1-46-1-68.9-3.3-8.4-0.8-17.7 6.9-24.1-6.3-2-4-12.4-2.1-17.2 6-6.7 11.4-14.6 16.9-18.4-2.2-1-5.1-3.7-9.5-8.7-7.5-10.6 4.3-23.9-7.7-33 7-5.4 8.6-18 3.1-26 8.6-10.5 7.1-17.4 6.9-25.9-5.9-5.1-7.8-24.3-9.4-30.6-1.5-12.9 16.4-23.3 7.6-31.1-1-8.9-9.8-16.3-2.9-21.4 0.3-5 3.1 6.1 1 5 6.5-15.6-4.4-34.1 9.9-48-8.6-1.9-2.5-8.6 0.7-13.5 3-9.4 4.4-18.7 29.6-32 2.8-1.7-3.4-13.3-1.7-22.9-2.7 4.7 6.1 21.4 4.3 10.1 16.4-2 2.1-4.1 4.3-5.5 1.1-5.2-11.2-15.8-5.1-23.5-7.8-13.3-4.7-26.4-6.8-39 3.9-8.1 7-17.8-0.5-26.7-1.6-20.7-2.5-40.2 11-61.4 4.4-2.8-0.9-4.6 2.2-7.2-3.2-5.1-10.4-13.8-11-21.8-1.6-9.7 11.5-35.6 16.3-50.9 12.7-14.1-3.4-28.4 1.5-40.9 8.5-2.8 1.5-5.1 2.5-7.8 2.5-17.4 0.4-34.9-0.8-52.1 1-33.3 3.4-66.3 8.9-99.5 12.7-57.6 6.5-115.3 12.9-173 18.4-22.9 2.3-32.6-5.3-32.5-21.9 0-14.7 15.7-27 32.4-28.3 54.5-4.5 108.9-10.4 163.4-15 60.3-5.1 120.2-13.2 180.8-15.7 75.9-3.2 151.8-8.8 227.7-11 54.7-1.6 109.4-3.6 164.1-4.7 99.6-2.1 199.1-3 298.7-2.5 50 0.2 99.9-3.8 150.1-1.7 49 2 98.3 6.1 147.3 3.4 34.9-1.9 69 1.7 103.5 4.3 16 1.2 31.9 3.5 48-1.4 5-1.6 11.3 0.7 17 1.6 3.1 0.5 7.8 0.3 7.8 4.1 0.1 3.4-2.5 9.8-4.2 9.9-11.9 0.4-12.5 9.3-13 19.8-10.5-24-29.6-27.2-49.2-25.6-12.1 1-19.7 10.2-19.1 26-14-37.2-45.5-15.2-67.6-23-2.6-0.9-4.1 10.3-6.1 18.2-9.3-11-21.1-15.1-33.9-17.2-3.1-0.5-6.7-4.1-6.7 3.9 0.2 19.2-11.7 14.8-23.7 9.8zm425.4 48.7q0 0 0 0 0-0.3-0.1-0.7 0.3 0.3 0.6 0.6-0.2 0-0.4 0.1c0 0-0.1-0.4-0.1-0.6 0 0.2 0.1 0.6 0 0.6zm-0.1-0.7q0 0 0.1 0.1-0.1-0.1-0.1-0.1zm-9.8 14.2c4.2 1 8.4 2 16.6 3.9-9.8 1.6-16.5 4.4-22.6 3.4-15.6-2.7-30.4-13-46.1 1.8-5.3 5-12-3.5-14.2-8.3-4.1-9.5-4.9-11.2-10.1-4.8-10.6 13.1-23.3 10.7-36.5 7.4 3.2-2.6 13.6-1.8 10-6.7-7.2-9.8-19.9-9.8-31.5-9.9-0.6 6.4 5.7 6.4 8.9 10-8.2 5.3-20-6.1-24.3 7.3-0.1 0.6-6.4 0.6-9.5-3.4-12.9-16.7-29.6-19.7-47.3-8.9-5 3.1-8.6 6.1-14.9 1.5-5.3-3.9-12.3-4.3-17.8 1.1-6.1 6-12 12.8-21.6 8.5-11.3-5.1 0.9-15.3-5-22.2-9.4 5.3-23.6 3.9-28.1 18.1-8.8-4.5-18.6-7.7-26.1-13.8-10.3-8.4-16.6-11.6-19.1 5.3-0.9 5.6-4.5 10.3-10.6 8.6-19.2-5.4-38.7 1.2-57.7-1.9-20-3.2-39.4-4.4-59.6-0.1-9.8 2.1-20.7-1.7-27.8-11.7-8.3-11.5-18.9-11-24.1 2.1-3 7.4-7.6 8.2-11.1 5.2-6.2-5.1-10.3-17-17.2-0.9-8.4-14-26.3 4.9-34.7-9.1q-0.6 0.2-1.2 0.2-0.4 0.8-0.8 1.6c-0.4-1-0.4-1.4-0.2-1.7-5.5-0.6-14.4-7-11.2 7.8 0.6 2.4-5 6.1-7.3 4.5-14.8-10.2-29.8 2.7-44.3-1.2-2.6-0.7-8.8 4.5-8.7-5.3 0.2-10.7-9.8-9.9-14.9-4.6-7.6 7.9-17 8.2-26.1 10.2-6.8 1.5-6.4 1.1-7.9-7.1-0.4-2.6-3.6-5.3-6.1-6.8-5.6-3.4-6.5 1.6-7.5 5.2-4 15-14.5 15.7-26.3 11.4-7.9-3-14.2-4-23.3-1.1-14 4.6-29.5 0.1-43.9-3-10.7-2.2-21.3-12.2-29.3 3.8-2.4-1.7-7.3 7.3-8.8-3.7-1.4-10.4-9.5-21.8-18.7-2.6-5 10.2-15.2 8.2-21.4 4.2-7.2-4.5-7.6-9.3-14.6 2.1-5.9 9.5-23.7 1.3-35.8 7-4.1 1.9 1.8-8.7-2.3-12.5-16.3 14.5-37.2 8.1-55.4 13.3-7-19.8-22.6-10.2-35.7-8.4 6.5 1 13 2 24.8 3.8-30.4 6-55.9 9.7-81.9 7.3-15.8-1.4-31.3 10.1-47 0.4-13.1 18.6-23.2 1.9-34.5-2.8-8.6-3.5-3 9.4-11.8 10.1-13.4 1.1-26.7 1.6-40.1 1.6-2.4 0-6.2-2.1-7.1-1.1-17.4 19.1-39.8 4.6-59.4 7.5-21.5 3.2-44 4.9-68 7.4 4.7 1.5 7.4 2.4 13 4.2-18.7 4.2-34.8 6.1-51.1 2.3-15.5-3.6-31.8-1.2-44.4 4.4-26.6 11.6-54.5 8.4-81.5 12.7-27.9 4.4-56.4 6.8-85 5.4-16.3-0.8-27.6-8.4-31.4-23.4-4.6-17.4 11.8-33 31.7-31.1 61.5 6.1 122.2-5 183.2-8.2 52.6-2.8 105.1-8.2 157.8-10.1 48.9-1.7 97.7-5.6 146.6-8.4 40.5-2.3 81-4.3 121.5-6.5 37.8-2.1 75.7-6.6 113.4-5.8 60.2 1.4 120.3-5.2 180.5-2 37.1 2 74.4 2.1 111.7 1.9 79-0.3 158 1.1 237 2.4 28.2 0.4 56.4 3.2 84.5 3.7 12 0.1 18 19.3 32.3 8.9-1.3-5.4-7.4-1.1-11.9-9 88.6 5.7 174.8 5.7 260.7 15.1 0.3 6.7-9.2 6.4-9.9 13.5zm-582-17.5q0.1-0.1 0.1-0.1-0.1 0-0.1 0 0 0 0 0.1zm-0.6-1.1q0 0 0 0 0 0 0 0zm689.6 1443q0 0 0 0 0 0 0 0c0 0.1 0 0 0 0q0 0.1 0 0.1 0 0 0 0 0 0 0 0c-2.1 1.4-5.6 2.5-6 4.3-4.9 21.8-11 26.6-33.5 24.9-2.4-0.1-6.4-0.9-6.8-2.2-8.8-29-25.5-9.4-36.8-4.3-7.8 3.5-10.6 7.5-18.9 0.2-10.5-9.4-20.9-5.5-26.5 7.7-6.7-1.5-4.6-7.6-6.7-11.2-7.4-12.7-0.8-15.2 11.1-15.5 41.3-0.9 82.7-2.6 124.1-4zm45.3 2.1c40.3-0.3 80.4 0.8 120.7 1.2 39 0.3 77.7 1.9 116.5 5.5 3.6 0.3 7.9-0.8 11.3 4-5.8 2.2-10 6.7-16.8 6.8-14.9 0.4-29.7-3.1-44.8 2.4-6.4 2.4-15.4-1-20.5-8.1-3-4-6.5-4.2-9.7-0.8-3 3.1-7.9 6.2-6.5 10.9 0.6 1.9 6.1 2.5 9.2 4.5-15-1-31.9 8.5-43.1-11.7-4.4-7.9-27.1-1.9-35.3 8.2-2.7 3.4-7.1 10.8-8.7 8.4-13-19-29.8 0.8-45.3-5-11.4-4.2-27.8-5.3-42.1-1.5-2.7 0.7-6-0.7-9.1-1.2 11.3-23.6-19.4-12.6-21.1-25.6 14.4 10.9 30.7 2.1 45.3 2zm-69.6-1438.5c42.8 4.8 85.9 4.7 128.6 10.5 11 1.5 21.5 3.8 31.6 8.5 8.8-4.1 8.8-4.1 44.8 2.6-17.2 4.5-30.9 6.5-44.2-2.3 1.1 16-12.8 8.6-19.3 11.5-23.5 10.5-34.7 6.3-52.4-11.5-1.8-1.8-18.2-8.4-27.7 0.9-10.9 10.7-23.1 12.7-35.6 1.8-6.8-5.8-14.4-1.8-19.7 1.4-9.8 5.9-19.3 5.1-31.5 3.3 6.6-5.1 11.8-9.1 18.3-14.1-9-4.3-13.3-8.8-20-1.4-14.4 15.8-20.7 14.9-33.6-1.2-3.4-4.3-7.7-7.8-11.6-11.6 24.2-3.7 48.7-1.1 72.3 1.6zm621.8 1385.3c1.4-7.6 2.2-12 3-16.3 0.8-4.1 0.5-7.4-4.3-9.1-6-2.3-5.3 2.4-7.2 5.5-2.7 4.2-6.5 7.9-10.3 11.4-2.3 2.1-5.6 3.9-8.4 0.5-1.9-2.2-1.6-4.9 0.7-6.8 5-4 10.1-9.5 1.2-12.8-5.7-2.1-15-4.2-19.4 5.4-1.8 3.9 0.3 12.7-3.4 11.4-8.5-3-19.1 2.1-25.4-5.3-4.6-5.4-8.9-8.6-16.1-8.3-12.2 0.7-10.5-10.7-11.3-16.6-0.8-7.2 7.6-4.4 11.9-4.4 34.5 0 68.7 4.2 103 7.6 8.6 0.8 8.8 4.2 7.8 11.2-1.8 12.4-8 20.6-21.8 26.6zm-44.8 89.9q0 0 0-0.1 0.3-0.2 0.5-0.4zm-37.1-3.7c-3.2-3.8-10.4-5.3-11.7-1.3-4.6 13.4-18.1 7.6-26.1 13.7-5.7 4.4-13.3 2.4-16.8-6.5-5.4-13.8-15.6-11.8-24.8-5.2-5.7 4.2-9.2 15.2-14.9 0-0.7-1.8-8.9-2.4-12.8-1-10.4 3.5-19.9 8.1-25.4-7.2-1.6-4.3-12-1.1-12-9.5 40.6-0.7 81 0.8 121.1 7.2 13.8 2.1 27.7 3.5 41.6 5.3 7 1 14 2 18.9 8.1-13.3 10-25.6 9.7-37.1-3.6zm-144.5-17q-0.1 0-0.3 0l0.4-0.4q0 0.2-0.1 0.4zm-630.3-1523.9q0.4 0.4 0.8 0.8-0.6-0.1-1.2-0.2zm42.6-5.5c38.1 4.4 76.9-2.4 114.9 6-10.3 28.1-34.8 10.5-52.2 15.5-9.4 2.8-20.3 2.1-30.3-6.7-13.9-12.2-8.5 5.4-12.3 11.7-6.4-12-13.3-19.9-27.6-11.6-13.4 7.8-24.5 0.7-34.3-8.6 14.3 1.4 26.8-8 41.8-6.3zm667.9 1413.6q0.3-0.1 0.7-0.2 0 0 0 0 0 0 0 0 0 0 0 0 0 0.1 0 0.2-0.3 0.1-0.5 0.3-0.1-0.2-0.2-0.3zm-9.9 3.8c-6.5 6.7-12 14.4-17.9 21.8-6-7.7-18.9-4.2-20.8-5.6-14.7-11.1-30.8-11.3-47.5-12.8-5.2-0.4-5.8-6.8-5.9-12.5-0.1-5.3 1.9-7.9 6.1-7.2 30.9 5.2 62.1 5.1 93.1 8 1.1 0.1 1.9 2.8 2.8 4.5-3.5 1.1-7.7 1.4-9.9 3.8zm-228.1-8.5q-2.5-1.1-4.9-2.3c-3.3-1.6-8.1-6.8-4.4-7.1 21.4-1.6 43.2-7.6 64.2 1.8 3.9 1.8 3.9 6.1 3.4 10.1q-0.4 0.8-0.9 1.6c-5.5 2.8-11.5 5.1-16.5 8.6-23.6 16.2-32.1 13.7-40.9-12.7zm57.4 4.1q0.5-0.8 0.9-1.6c3.9-10.2 12.1-12.1 21.8-12 10.8 0 21.5 2.6 32.5 0 4.4-1.1 12.6-1.6 11.5 5.6-0.8 5.1 0.6 14.1-7.6 15.6-7 1.3-13.3 1.3-17.2 9.3-0.8 1.6-15.3 11-17.1-6.2-1-10.4-9-8.2-15.7-2.9-2.6 2.2-5 7.5-9.2 4.2-4.5-3.3-2.1-8 0.1-12zm-231.8-1380.3c-12.2 1.9-17.2-20.3-27.7-4.2-4.8 7.4 4.8 4.4 9.8 7.6-10.3 0-18.7 0.3-27-0.1-10-0.6-14.8-6-14.5-16.5 0.3-10.9 8.2-7.9 14.3-9.7 10.4-3 20.4 0.4 30.7-0.1 16.4-0.7 9.2 14.7 14.4 23zm331.7 1496.8q-0.1-0.2-0.3-0.3 0.4-0.1 0.8-0.2c0 0-0.4 0.4-0.5 0.5zm-6.9 1.4c-6.4 3-18.1-0.2-17.9 10.1 0.1 10 13.1-0.5 17.5 8.9-15.7-1-30.4-1.9-44.5-2.7-2.8-6.2 1.3-7.1 3.7-8.2 9.8-4.1-8-19.2 4.1-16.8 14.5 2.9 31-5.2 43.7 7-2.2 0.4-4.6 0.7-6.6 1.7zm-176.6-1502.4c-11.3 0.2-22.7-5-30 8.4-1.2 2.2-10.8 8.8-12.9 2.3-4.9-15.2-19-7.9-27.7-13.4 14-9.6 37.9-8.8 70.6 2.7zm298 1380.4c-18.7 14.8-8.2 24.1-1.3 33.8-18.9 3.2-32.9-10.1-31.8-29.1 8.8-5.7 18.6 1.1 33.1-4.7zm-33.1 4.5q0 0 0 0 0 0 0 0zm-711.8-1407.2q0-0.2 0.1-0.3 0.2-0.2 0.4-0.4c0 0-0.4 0.6-0.5 0.7zm-8.3 6.3c-4.2 1.6-9.1 1.3-12-3-1.2-1.8-1.5-6.5-0.9-6.7 3.3-1.5 7.2-2.9 10.6-2.4 3.8 0.6 11.4-3.9 10.7 5.5-2.8 2.3-5.2 5.3-8.4 6.6z"/>
	</g>
</svg>