<svg xmlns="http://www.w3.org/2000/svg" data-name="Layer 1" viewBox="0 0 168 168" id="apps-develop"><path fill="#2d4356" d="M44,112H34a4,4,0,0,0-4,4v10a4,4,0,0,0,4,4H44a4,4,0,0,0,4-4V116A4,4,0,0,0,44,112Zm0,14H34V116H44Z"></path><path fill="#0bceb2" d="M66,112H56a4,4,0,0,0-4,4v10a4,4,0,0,0,4,4H66a4,4,0,0,0,4-4V116A4,4,0,0,0,66,112Zm0,14H56V116H66Z"></path><path fill="#2d4356" d="M74,126a4,4,0,0,0,4,4H88a4,4,0,0,0,4-4V116a4,4,0,0,0-4-4H78a4,4,0,0,0-4,4Zm4-10H88v10H78Z"></path><path fill="#0bceb2" d="M48,94a4,4,0,0,0-4-4H34a4,4,0,0,0-4,4v10a4,4,0,0,0,4,4H44a4,4,0,0,0,4-4Zm-4,10H34V94H44Z"></path><path fill="#2d4356" d="M70 94a4 4 0 0 0-4-4H56a4 4 0 0 0-4 4v10a4 4 0 0 0 4 4H66a4 4 0 0 0 4-4zm-4 10H56V94H66zM48 72a4 4 0 0 0-4-4H34a4 4 0 0 0-4 4V82a4 4 0 0 0 4 4H44a4 4 0 0 0 4-4zM44 82H34V72H44z"></path><path fill="#0bceb2" d="M48,50a4,4,0,0,0-4-4H34a4,4,0,0,0-4,4V60a4,4,0,0,0,4,4H44a4,4,0,0,0,4-4ZM44,60H34V50H44Z"></path><path fill="#2d4356" d="M70,50a4,4,0,0,0-4-4H56a4,4,0,0,0-4,4V60a4,4,0,0,0,4,4H66a3.97476,3.97476,0,0,0,2.955-1.325,9.93182,9.93182,0,0,1-.42328-7.39471l1.25488-3.68652c.05981-.17566.14459-.33643.21338-.5069ZM66,60H56V50H66Z"></path><path fill="#0bceb2" d="M70 72a4 4 0 0 0-4-4H56a4 4 0 0 0-4 4V82a4 4 0 0 0 4 4H66a3.99559 3.99559 0 0 0 3.927-3.27539A9.96715 9.96715 0 0 1 70 75.95013zM66 82H56V72H66zM82.00629 94c-.36407-.36432-.72742-.72943-1.07709-1.10889A9.98982 9.98982 0 0 1 75.294 91.0705 3.97643 3.97643 0 0 0 74 94v10a4 4 0 0 0 4 4H88a3.98866 3.98866 0 0 0 3.75287-2.65948A9.95351 9.95351 0 0 1 88 101.37964V104H78V94z"></path><path fill="#2d4356" d="M93.93213,31.967,90.43774,33.6864a5.96686,5.96686,0,0,0-3.12451,6.88525,34.13524,34.13524,0,0,0-7.31488,8.32556,5.96657,5.96657,0,0,0-6.425,3.98529l-1.25513,3.68671A5.96666,5.96666,0,0,0,74.97705,63.647a34.13334,34.13334,0,0,0,.71552,11.05933,5.96678,5.96678,0,0,0-1.72571,7.36139l1.71954,3.49457a5.961,5.961,0,0,0,6.88611,3.12549,34.14066,34.14066,0,0,0,8.32471,7.3139,5.96657,5.96657,0,0,0,3.98529,6.425l3.68671,1.25513a5.96663,5.96663,0,0,0,7.07776-2.65881c.98523.09741,1.97339.14844,2.96161.15979l-1.599-4.06915a30.07107,30.07107,0,0,1-3.96655-.531l-.71088,2.08813a1.94719,1.94719,0,0,1-2.47089,1.21582L96.1745,98.63147a1.94733,1.94733,0,0,1-1.21582-2.47095l.71088-2.08813a30.02235,30.02235,0,0,1-11.8-10.36639l-1.979.97375a1.94737,1.94737,0,0,1-2.60693-.88751l-1.71942-3.49438a1.94739,1.94739,0,0,1,.88751-2.60693l1.97894-.97375A30.02218,30.02218,0,0,1,79.41742,61.043l-2.0882-.71088a1.94731,1.94731,0,0,1-1.21582-2.47089l1.25513-3.68677a1.94724,1.94724,0,0,1,2.47089-1.21582l2.0882.71088A30.02253,30.02253,0,0,1,92.294,41.86945l-.97375-1.97894a1.9473,1.9473,0,0,1,.88751-2.60693l3.49438-1.71942a1.94718,1.94718,0,0,1,2.60693.88751l.97369,1.97888A30.02237,30.02237,0,0,1,114.957,37.41736l.71088-2.08813a1.94719,1.94719,0,0,1,2.47089-1.21582l3.68677,1.25513a1.94716,1.94716,0,0,1,1.21582,2.47089l-.71088,2.08813a30.02211,30.02211,0,0,1,11.80011,10.36639l1.97894-.97369a1.94727,1.94727,0,0,1,2.60693.88745l1.71942,3.49445a1.9473,1.9473,0,0,1-.88751,2.60693l-1.97888.97369a30.0215,30.0215,0,0,1,1.01312,15.67413l2.0882.71088a1.9473,1.9473,0,0,1,1.21582,2.47095l-1.25513,3.68677a1.94729,1.94729,0,0,1-2.47089,1.21582l-2.0882-.71094a29.96151,29.96151,0,0,1-4.99774,7.2298l1.60742,4.0907a34.12523,34.12523,0,0,0,5.31958-6.5481,5.96657,5.96657,0,0,0,6.425-3.98529l1.25513-3.68677A5.96659,5.96659,0,0,0,143.023,70.353a34.13954,34.13954,0,0,0-.71527-11.05817,5.96076,5.96076,0,0,0,1.72528-7.36273l-1.71942-3.49438a5.96091,5.96091,0,0,0-6.886-3.12555,34.13957,34.13957,0,0,0-8.32477-7.31384,5.96669,5.96669,0,0,0-3.98529-6.425l-3.68671-1.25507A5.9666,5.9666,0,0,0,112.353,32.977a34.141,34.141,0,0,0-11.05811.71521A5.96091,5.96091,0,0,0,93.93213,31.967Z"></path><path fill="#0bceb2" d="M138.30579,141.38416a8.91821,8.91821,0,0,0,5.07727-11.56409l-18.629-47.407a22.61078,22.61078,0,0,0-11.13733-38.32428,4,4,0,0,0-4.56079,5.37415l5.04694,12.84357-4.60272,5.727-7.29846-1.0907L97.15149,54.09082a3.99995,3.99995,0,0,0-6.99219-.84174A22.622,22.622,0,0,0,108.09,88.92572L126.7229,136.343a8.94784,8.94784,0,0,0,11.58289,5.0412Zm-7.86-6.50409L110.77661,84.82581A18.80177,18.80177,0,0,1,91.28986,73.1001a18.58558,18.58558,0,0,1,2.13879-17.54633l5.89563,15.00336,11.85547,1.77173,7.49475-9.3255L112.77887,48a18.61731,18.61731,0,0,1,7.2121,33.22876L139.66016,131.283a4.9459,4.9459,0,0,1-9.21442,3.597Z"></path><circle cx="2" cy="150" r="2" fill="#2d4356"></circle><path fill="#2d4356" d="M11 148H8a2 2 0 0 0 0 4h3a2 2 0 0 0 0-4zM160 148h-3a2 2 0 0 0 0 4h3a2 2 0 0 0 0-4z"></path><circle cx="166" cy="150" r="2" fill="#2d4356"></circle><path fill="#0bceb2" d="M118.15387 156h-8.30774a2.00641 2.00641 0 0 0 0 4h8.30774a2.00641 2.00641 0 0 0 0-4zM58.15387 156H49.84613a2.00641 2.00641 0 0 0 0 4h8.30774a2.00641 2.00641 0 0 0 0-4zM104 156H64a2 2 0 0 0 0 4H79.94v2H72a2 2 0 0 0 0 4H97a2 2 0 0 0 0-4H88.06v-2H104a2 2 0 0 0 0-4z"></path><path fill="#2d4356" d="M150.72131 148H98.921A7.95228 7.95228 0 0 0 100 144V107.9801a9.93252 9.93252 0 0 1-2.71973-.51184L96 107.03247V140H26V36H83.60382a9.99407 9.99407 0 0 1 2.44653-4H26a4.0045 4.0045 0 0 1 4-4H92a3.98936 3.98936 0 0 1 .84119.09265 9.65054 9.65054 0 0 1 5.82965-.50439A7.98973 7.98973 0 0 0 92 24H30a8 8 0 0 0-8 8V144a7.95228 7.95228 0 0 0 1.079 4H17.27869a2.017 2.017 0 1 0 0 4H150.72131a2.017 2.017 0 1 0 0-4zM30 148a4.00454 4.00454 0 0 1-4-4H96a4.00454 4.00454 0 0 1-4 4zM68.30471 8a3 3 0 1 0-3-3A3.00344 3.00344 0 0 0 68.30471 8zm0-4.5a1.5 1.5 0 1 1-1.5 1.5A1.50148 1.50148 0 0 1 68.30471 3.5zM146 34.52386a2 2 0 1 0 2 2A2.00229 2.00229 0 0 0 146 34.52386zm0 3a1 1 0 1 1 1-1A1.001 1.001 0 0 1 146 37.52386zM146 4.5a2 2 0 1 0 2 2A2.00229 2.00229 0 0 0 146 4.5zm0 3a1 1 0 1 1 1-1A1.001 1.001 0 0 1 146 7.5zM160.5 56a2 2 0 1 0 2 2A2.00229 2.00229 0 0 0 160.5 56zm0 3a1 1 0 1 1 1-1A1.001 1.001 0 0 1 160.5 59zM41 17.48116a2 2 0 1 0-2 2A2.00229 2.00229 0 0 0 41 17.48116zm-3 0a1 1 0 1 1 1 1A1.001 1.001 0 0 1 38 17.48116z"></path><polygon fill="#0bceb2" points="9.915 41.011 11.402 39.056 10.463 38.524 9.509 40.714 9.477 40.714 8.508 38.539 7.552 39.087 9.024 40.996 9.024 41.027 6.723 40.73 6.723 41.794 9.039 41.497 9.039 41.528 7.552 43.436 8.444 44 9.462 41.794 9.492 41.794 10.431 43.984 11.417 43.421 9.915 41.543 9.915 41.512 12.277 41.794 12.277 40.73 9.915 41.042 9.915 41.011"></polygon><polygon fill="#0bceb2" points="5.734 10.23 4.878 11.329 5.392 11.654 5.978 10.383 5.996 10.383 6.536 11.644 7.104 11.32 6.239 10.239 6.239 10.221 7.599 10.383 7.599 9.77 6.239 9.95 6.239 9.932 7.095 8.806 6.555 8.5 6.005 9.761 5.987 9.761 5.429 8.509 4.878 8.824 5.726 9.924 5.726 9.942 4.401 9.77 4.401 10.383 5.734 10.212 5.734 10.23"></polygon><polygon fill="#0bceb2" points="164.724 26.521 164.724 25.478 162.407 25.785 162.407 25.754 163.866 23.836 162.945 23.314 162.009 25.462 161.977 25.462 161.027 23.329 160.089 23.867 161.533 25.739 161.533 25.77 159.276 25.478 159.276 26.521 161.548 26.23 161.548 26.261 160.089 28.133 160.964 28.686 161.963 26.521 161.992 26.521 162.913 28.67 163.881 28.118 162.407 26.276 162.407 26.245 164.724 26.521"></polygon><polygon fill="#0bceb2" points="116.748 19.586 118.006 17.931 117.211 17.481 116.404 19.334 116.377 19.334 115.557 17.494 114.748 17.958 115.993 19.573 115.993 19.599 114.047 19.348 114.047 20.248 116.006 19.996 116.006 20.023 114.748 21.638 115.503 22.115 116.364 20.248 116.39 20.248 117.185 22.101 118.019 21.625 116.748 20.036 116.748 20.009 118.746 20.248 118.746 19.348 116.748 19.612 116.748 19.586"></polygon></svg>