<?xml version="1.0" encoding="utf-8"?>
<!-- Generator: Adobe Illustrator 18.0.0, SVG Export Plug-In . SVG Version: 6.00 Build 0)  -->
<!DOCTYPE svg PUBLIC "-//W3C//DTD SVG 1.1//EN" "http://www.w3.org/Graphics/SVG/1.1/DTD/svg11.dtd">
<svg version="1.1" id="ecommerce_1_" xmlns="http://www.w3.org/2000/svg" xmlns:xlink="http://www.w3.org/1999/xlink" x="0px"
	 y="0px" viewBox="0 0 115 115" style="enable-background:new 0 0 115 115;" xml:space="preserve">
<style type="text/css">
	.st0{fill:#FFEEAD;}
	.st1{fill:#C9B77D;}
	.st2{fill:#99734A;}
	.st3{fill:#FF6F69;}
	.st4{fill:#96CEB4;}
	.st5{fill:none;}
	.st6{fill:#AA9865;}
	.st7{fill:#71A58A;}
	.st8{fill:#FFCC5C;}
	.st9{fill:#825E3B;}
	.st10{fill:#639376;}
	.st11{fill:#E05858;}
	.st12{fill:#C1821E;}
	.st13{fill:#D6A041;}
	.st14{fill:#B28559;}
	.st15{fill:#BF4343;}
	.st16{fill:#D3C089;}
	.st17{fill:#7C5C3C;}
	.st18{fill:#FDCC5C;}
	.st19{fill:#FFFFFF;}
</style>
<g id="SEO_1_">
	<g>
		<g>
			<g>
				<path className="st4" d="M98.257,55.893c-0.737-0.925-2.082-1.074-3.004-0.34L65.48,79.28L50.275,67.549
					c-0.872-0.674-2.111-0.573-2.864,0.229L31.739,84.472c-0.808,0.861-0.765,2.214,0.095,3.022
					c0.413,0.387,0.938,0.579,1.463,0.579c0.569,0,1.138-0.227,1.558-0.674L49.2,72.119l14.995,11.569
					c0.78,0.602,1.868,0.593,2.638-0.02l31.085-24.772C98.841,58.161,98.993,56.816,98.257,55.893z"/>
			</g>
		</g>
		<g>
			<g>
				<path className="st7" d="M34.939,94.703h-1.632c-1.89,0-3.436,1.546-3.436,3.436v9.396c0,1.89,1.546,3.436,3.436,3.436h1.632
					c1.89,0,3.436-1.546,3.436-3.436v-9.396C38.375,96.249,36.829,94.703,34.939,94.703z"/>
			</g>
		</g>
		<g>
			<g>
				<path className="st7" d="M50.356,82.37h-1.632c-1.89,0-3.436,1.546-3.436,3.436v21.729c0,1.89,1.546,3.436,3.436,3.436h1.632
					c1.89,0,3.436-1.546,3.436-3.436V85.806C53.791,83.916,52.245,82.37,50.356,82.37z"/>
			</g>
		</g>
		<g>
			<g>
				<path className="st7" d="M65.772,90.592H64.14c-1.89,0-3.435,1.546-3.435,3.436v13.507c0,1.89,1.546,3.436,3.435,3.436h1.632
					c1.89,0,3.436-1.546,3.436-3.436V94.028C69.207,92.138,67.661,90.592,65.772,90.592z"/>
			</g>
		</g>
		<g>
			<g>
				<path className="st7" d="M81.188,83.398h-1.632c-1.89,0-3.436,1.546-3.436,3.436v20.701c0,1.89,1.546,3.436,3.436,3.436h1.632
					c1.89,0,3.436-1.546,3.436-3.436V86.833C84.624,84.944,83.078,83.398,81.188,83.398z"/>
			</g>
		</g>
		<g>
			<g>
				<path className="st7" d="M96.605,69.009h-1.632c-1.89,0-3.436,1.546-3.436,3.436v35.09c0,1.89,1.546,3.436,3.436,3.436h1.632
					c1.89,0,3.436-1.546,3.436-3.436v-35.09C100.04,70.555,98.494,69.009,96.605,69.009z"/>
			</g>
		</g>
		<g>
			<g>
				<circle className="st3" cx="33.298" cy="85.935" r="4.282"/>
			</g>
		</g>
		<g>
			<g>
				<circle className="st3" cx="49.026" cy="69.34" r="4.282"/>
			</g>
		</g>
		<g>
			<g>
				<circle className="st3" cx="65.672" cy="81.824" r="4.282"/>
			</g>
		</g>
		<g>
			<g>
				<circle className="st3" cx="80.372" cy="69.9" r="4.282"/>
			</g>
		</g>
		<g>
			<g>
				<circle className="st3" cx="95.788" cy="57.5" r="4.282"/>
			</g>
		</g>
	</g>
	<g>
		<g>
			<path className="st2" d="M103.466,23.985H43.803c-6.344,0-11.534,5.19-11.534,11.534v2.009c0,6.344,5.19,11.534,11.534,11.534h59.663
				c6.344,0,11.534-5.19,11.534-11.534v-2.009C115,29.175,109.81,23.985,103.466,23.985z"/>
		</g>
	</g>
	<g>
		<g>
			<path className="st0" d="M102.363,26.613H44.906c-5.451,0-9.911,4.46-9.911,9.911c0,5.451,4.46,9.911,9.911,9.911h57.458
				c5.451,0,9.911-4.46,9.911-9.911C112.274,31.072,107.814,26.613,102.363,26.613z"/>
		</g>
	</g>
	<g>
		<g>
			<path className="st4" d="M102.363,26.612h-8.091v19.822h8.091c5.451,0,9.911-4.46,9.911-9.911
				C112.274,31.072,107.814,26.612,102.363,26.612z"/>
		</g>
	</g>
	<g>
		<g>
			<g>
				<g>
					<path className="st4" d="M25.749,52.296l-1.546-0.756c-1.608-0.786-3.567-0.114-4.354,1.494l-7.408,15.149
						c-0.786,1.608-0.114,3.567,1.494,4.354l1.546,0.756c1.608,0.786,3.567,0.114,4.354-1.494l7.408-15.149
						C28.029,55.042,27.357,53.083,25.749,52.296z"/>
				</g>
			</g>
			<g>
				<g>
					<path className="st3" d="M17.496,68.138l-0.73-0.357c-2.666-1.304-5.913-0.189-7.217,2.476L0.545,88.672
						c-1.304,2.666-0.189,5.913,2.477,7.217l0.73,0.357c2.666,1.304,5.913,0.189,7.217-2.477l9.005-18.414
						C21.277,72.689,20.162,69.441,17.496,68.138z"/>
				</g>
			</g>
			<g>
				<g>
					<g>
						<circle className="st3" cx="33.871" cy="33.73" r="29.693"/>
					</g>
				</g>
				<g>
					<g>
						<circle className="st19" cx="33.871" cy="33.73" r="27.168"/>
					</g>
				</g>
				<g>
					<g>
						<circle className="st2" cx="33.871" cy="33.73" r="25.254"/>
					</g>
				</g>
				<g>
					<g>
						<path className="st0" d="M48.443,13.134H19.257c-3.336,2.363-6.145,5.57-8.068,9.501C5.833,33.588,9.126,46.523,18.41,53.698
							h30.93c2.977-2.295,5.46-5.269,7.223-8.874C62.084,33.532,58.402,20.023,48.443,13.134z"/>
					</g>
				</g>
				<g>
					<g>
						<g>
							<path className="st11" d="M21.33,33.005c-0.852-0.601-2.274-1.517-3.159-2.117c-1.169-0.791-2.022-1.391-2.022-2.434
								c0-0.821,0.663-1.39,1.486-1.39c0.474,0,1.105,0.127,1.422,0.948c0.063,0.221,0.127,0.474,0.189,0.727
								c0.348,1.075,1.264,1.548,2.275,1.548c1.106,0,2.528-0.664,2.528-2.781c0-0.506-0.064-1.58-0.885-2.655
								c-1.454-1.926-4.013-2.117-5.34-2.117c-4.36,0-7.079,2.465-7.079,6.605c0,3.571,2.339,5.055,4.424,6.415
								c0.538,0.347,1.042,0.695,1.58,1.042c1.484,0.916,2.402,1.516,2.402,2.749c0,0.916-0.695,1.864-1.928,1.864
								c-0.506,0-1.39-0.189-1.737-1.295c-0.096-0.316-0.126-0.663-0.158-1.011c-0.064-0.506-0.158-1.075-0.663-1.548
								c-0.443-0.443-1.012-0.664-1.707-0.664c-1.833,0-2.717,1.486-2.717,3.191c0,2.307,1.295,3.95,3.097,4.803
								c1.231,0.569,2.717,0.759,4.013,0.759c4.804,0,7.457-2.844,7.457-6.763C24.806,35.469,22.879,34.047,21.33,33.005z"/>
						</g>
					</g>
					<g>
						<g>
							<path className="st11" d="M39.149,41.568c-0.695-0.759-1.611-0.759-2.432-0.759h-4.298v-4.802h3.665
								c0.885,0,2.275-0.032,2.749-1.422c0.095-0.317,0.127-0.6,0.127-0.791c0-0.569-0.189-1.074-0.506-1.454
								c-0.631-0.695-1.611-0.726-2.37-0.758h-3.665v-3.982h4.045c0.759,0,1.801,0,2.496-0.663c0.411-0.347,0.663-0.885,0.663-1.58
								c0-2.306-2.274-2.306-3.191-2.306h-5.814c-0.916,0-1.896,0-2.717,0.663c-1.042,0.822-1.042,2.085-1.042,3.065v14.948
								c0,1.105,0,2.148,0.79,2.874c0.791,0.759,1.864,0.759,2.938,0.759h6.067c0.823,0,1.771,0,2.466-0.727
								c0.41-0.379,0.6-0.948,0.6-1.516C39.719,42.801,39.687,42.137,39.149,41.568z"/>
						</g>
					</g>
					<g>
						<g>
							<g>
								<path className="st11" d="M55.927,25.737c-1.548-2.623-4.519-3.034-6.541-3.034c-1.739,0-3.508,0.285-4.962,1.265
									c-2.559,1.737-2.685,4.581-2.685,9.164c0,6.129,0,8.499,1.675,10.395c1.896,2.118,5.087,2.118,5.941,2.118
									c1.454,0,4.708-0.126,6.447-2.623c0.978-1.422,1.263-2.97,1.263-8.027C57.064,28.675,56.749,27.158,55.927,25.737z
									 M51.345,38.851c-0.032,0.601-0.158,2.211-1.928,2.211c-1.864,0-1.926-1.801-1.99-3.665
									c-0.032-1.012-0.032-2.022-0.032-3.034c0-1.264,0-3.981,0.126-5.087c0.064-0.536,0.221-1.958,1.801-1.958
									c1.201,0,1.739,0.727,1.928,1.991c0.126,0.916,0.158,3.633,0.158,4.834C51.409,34.236,51.377,38.124,51.345,38.851z"/>
							</g>
						</g>
					</g>
				</g>
			</g>
			<g>
				<g>
					<path className="st11" d="M21.345,68.689l-7.376-3.607c-1.658-0.811-3.678-0.117-4.489,1.541c-0.811,1.658-0.118,3.678,1.54,4.489
						l7.376,3.607c1.658,0.811,3.678,0.117,4.489-1.541C23.696,71.52,23.003,69.5,21.345,68.689z"/>
				</g>
			</g>
		</g>
		<g>
			<g>
				<path className="st19" d="M51.891,18.113c-9.082-10.041-24.64-10.821-34.682-1.741c-0.57,0.517-0.765,1.295-0.565,1.988
					c0.08,0.276,0.222,0.539,0.427,0.767c0.723,0.799,1.955,0.86,2.755,0.138c8.446-7.638,21.532-6.982,29.172,1.465
					c0.723,0.799,1.956,0.859,2.755,0.138C52.551,20.145,52.614,18.914,51.891,18.113z"/>
			</g>
		</g>
	</g>
</g>
</svg>
