<svg xmlns="http://www.w3.org/2000/svg" data-name="Layer 1" viewBox="0 0 512 512" id="design"><rect width="475.42" height="99.19" x="18.29" y="386.67" fill="#00efd1"></rect><polygon fill="#00acea" points="185.99 344.43 326.66 344.43 493.71 344.43 493.71 386.67 18.29 386.67 18.29 344.43 185.99 344.43"></polygon><rect width="50.44" height="50.45" x="435.44" y="40.05" fill="#fedb41"></rect><polygon fill="#00acea" points="415.99 194.71 450.74 194.71 450.74 258.1 387.36 258.1 387.36 194.71 415.99 194.71"></polygon><path fill="#00efd1" d="M256 214.45a19.34 19.34 0 1 0 19.34 19.34A19.342 19.342 0 0 0 256 214.45zm0-95.47l81.49 153.96-10.83 71.49H185.99l-11.48-71.49zM255.31 26.14a35.457 35.457 0 1 1-25.08 10.39A35.467 35.467 0 0 1 255.31 26.14z"></path><circle cx="256" cy="233.79" r="19.34" fill="#fedb41"></circle><rect width="63.38" height="63.39" x="59.88" y="194.71" fill="#00acea"></rect><polygon fill="#fedb41" points="76.56 67 76.56 90.5 26.12 90.5 26.12 40.05 76.56 40.05 76.56 67"></polygon><path fill="#083863" d="M26.12,99H76.56A8.826,8.826,0,0,0,85,90.5V75h87.686A172.524,172.524,0,0,0,88.134,187H59.88A7.655,7.655,0,0,0,52,194.71V258.1a7.813,7.813,0,0,0,7.88,7.9h63.38a7.7,7.7,0,0,0,7.74-7.9V194.71a7.539,7.539,0,0,0-7.74-7.71H104.617A155.72,155.72,0,0,1,214.071,75.5a43.555,43.555,0,0,0,82.477.01A155.638,155.638,0,0,1,406,187H387.36c-4.419,0-8.36,3.292-8.36,7.71V258.1c0,4.419,3.941,7.9,8.36,7.9h63.38a8.141,8.141,0,0,0,8.26-7.9V194.71c0-4.418-3.841-7.71-8.26-7.71H422.479a172.452,172.452,0,0,0-84.52-112H427V90.5a8.826,8.826,0,0,0,8.44,8.5h50.44c4.418,0,8.12-4.082,8.12-8.5V40.05A8.146,8.146,0,0,0,485.88,32H435.44c-4.419,0-8.44,3.631-8.44,8.05V59H298.685a43.452,43.452,0,0,0-86.75,0H85V40.05C85,35.631,80.979,32,76.56,32H26.12A8.146,8.146,0,0,0,18,40.05V90.5C18,94.918,21.7,99,26.12,99ZM115,203v47H68V203Zm328,0v47H395V203Zm0-155h35V83H443ZM235.887,42.187A27.476,27.476,0,1,1,227.85,61.61,27.29,27.29,0,0,1,235.887,42.187ZM34,48H69V83H34Z"></path><path fill="#083863" d="M493.71,336H335.963l9.437-62.077a7.675,7.675,0,0,0-.839-4.833l-81.49-153.906a8.006,8.006,0,0,0-14.142.04l-81.49,153.967a7.369,7.369,0,0,0-.828,4.8L176.6,336H18.29A8.629,8.629,0,0,0,10,344.43V485.86A8.373,8.373,0,0,0,18.29,494H493.71a8.373,8.373,0,0,0,8.29-8.14V344.43A8.629,8.629,0,0,0,493.71,336ZM256,222.45a11.34,11.34,0,1,1-11.34,11.34A11.353,11.353,0,0,1,256,222.45ZM248,151.2v56.452a27.34,27.34,0,1,0,16,0V151.2l65.185,122.939L319.781,336H192.808l-9.975-61.9ZM486,478H452V455.3a8,8,0,1,0-16,0V478H410V438.58a8,8,0,1,0-16,0V478H368V455.3a8,8,0,1,0-16,0V478H327V438.58a8,8,0,1,0-16,0V478H285V455.3a8,8,0,1,0-16,0V478H243V438.58a8,8,0,1,0-16,0V478H201V455.3a8,8,0,1,0-16,0V478H160V438.58a8,8,0,1,0-16,0V478H118V455.3a8,8,0,1,0-16,0V478H76V438.58a8,8,0,0,0-16,0V478H26V395H486Zm0-99H26V352H486Z"></path></svg>