<svg xmlns="http://www.w3.org/2000/svg" viewBox="0 0 48 48" id="server"><circle cx="12" cy="6" r="2" fill="#42a5f5"></circle><circle cx="18" cy="6" r="2" fill="#42a5f5"></circle><circle cx="12" cy="20" r="2" fill="#42a5f5"></circle><circle cx="18" cy="20" r="2" fill="#42a5f5"></circle><circle cx="12" cy="34" r="2" fill="#42a5f5"></circle><circle cx="18" cy="34" r="2" fill="#42a5f5"></circle><path fill="#424242" d="M39 0H9a3 3 0 0 0-3 3v6a3 3 0 0 0 3 3h30a3 3 0 0 0 3-3V3a3 3 0 0 0-3-3zm1 9a1 1 0 0 1-1 1H9a1 1 0 0 1-1-1V3a1 1 0 0 1 1-1h30a1 1 0 0 1 1 1zm-1 5H9a3 3 0 0 0-3 3v6a3 3 0 0 0 3 3h30a3 3 0 0 0 3-3v-6a3 3 0 0 0-3-3zm1 9a1 1 0 0 1-1 1H9a1 1 0 0 1-1-1v-6a1 1 0 0 1 1-1h30a1 1 0 0 1 1 1zM1 45a1 1 0 0 0 0 2h15v-2zm38-17H9a3 3 0 0 0-3 3v6a3 3 0 0 0 3 3h14v2h2v-2h14a3 3 0 0 0 3-3v-6a3 3 0 0 0-3-3zm1 9a1 1 0 0 1-1 1H9a1 1 0 0 1-1-1v-6a1 1 0 0 1 1-1h30a1 1 0 0 1 1 1zm7 8H32v2h15a1 1 0 0 0 0-2z"></path><rect width="12" height="4" x="18" y="44" fill="#42a5f5" rx="1"></rect><path fill="#42a5f5" d="M9 12h30v2H9zM9 26h30v2H9z"></path><path fill="#424242" d="M36 7V5a1 1 0 0 1 2 0v2a1 1 0 0 1-2 0zm-4 0V5a1 1 0 0 1 2 0v2a1 1 0 0 1-2 0zm-4 0V5a1 1 0 0 1 2 0v2a1 1 0 0 1-2 0zm8 14v-2a1 1 0 0 1 2 0v2a1 1 0 0 1-2 0zm-4 0v-2a1 1 0 0 1 2 0v2a1 1 0 0 1-2 0zm-4 0v-2a1 1 0 0 1 2 0v2a1 1 0 0 1-2 0zm8 14v-2a1 1 0 0 1 2 0v2a1 1 0 0 1-2 0zm-4 0v-2a1 1 0 0 1 2 0v2a1 1 0 0 1-2 0zm-4 0v-2a1 1 0 0 1 2 0v2a1 1 0 0 1-2 0z"></path></svg>